ply
format ascii 1.0
element vertex 343
property float end_x
property float end_y
property float end_z
property int path_id
property int group_id
end_header
2.386262 -1.818173 0.000000 0 0
2.464344 -1.710851 0.000000 1 0
2.537602 -1.600179 0.000000 2 0
2.605895 -1.486376 0.000000 3 0
2.669086 -1.369664 0.000000 4 0
2.727054 -1.250270 0.000000 5 0
2.779684 -1.128430 0.000000 6 0
2.504399 -1.651661 0.000000 7 0
2.575001 -1.539276 0.000000 8 0
2.640563 -1.423878 0.000000 9 0
2.700956 -1.305693 0.000000 10 0
2.756064 -1.184953 0.000000 11 0
2.805776 -1.061894 0.000000 12 0
2.849998 -0.936756 0.000000 13 0
2.610938 -1.477499 0.000000 14 0
2.673732 -1.360572 0.000000 15 0
2.731293 -1.240982 0.000000 16 0
2.783509 -1.118963 0.000000 17 0
2.830276 -0.994755 0.000000 18 0
2.871504 -0.868599 0.000000 19 0
2.907112 -0.740743 0.000000 20 0
2.705384 -1.296493 0.000000 21 0
2.760080 -1.175566 0.000000 22 0
2.809374 -1.052338 0.000000 23 0
2.853170 -0.927051 0.000000 24 0
2.891381 -0.799949 0.000000 25 0
2.923933 -0.671281 0.000000 26 0
2.950762 -0.541300 0.000000 27 0
2.787301 -1.109484 0.000000 28 0
2.833645 -0.985116 0.000000 29 0
2.874444 -0.858821 0.000000 30 0
2.909616 -0.730845 0.000000 31 0
2.939094 -0.601438 0.000000 32 0
2.962819 -0.470855 0.000000 33 0
2.980745 -0.339350 0.000000 34 0
2.856308 -0.917335 0.000000 35 0
2.894086 -0.790104 0.000000 36 0
2.926200 -0.661326 0.000000 37 0
2.952587 -0.531254 0.000000 38 0
2.973195 -0.400142 0.000000 39 0
2.987983 -0.268247 0.000000 40 0
2.996924 -0.135827 0.000000 41 0
2.912087 -0.720938 0.000000 42 0
2.941124 -0.591432 0.000000 43 0
2.964404 -0.460768 0.000000 44 0
2.981883 -0.329203 0.000000 45 0
2.993525 -0.196993 0.000000 46 0
2.999309 -0.064398 0.000000 47 0
2.999222 0.068324 0.000000 48 0
2.563240 -1.558781 0.000000 49 1
2.629676 -1.443884 0.000000 50 1
2.690966 -1.326162 0.000000 51 1
2.746988 -1.205843 0.000000 52 1
2.797634 -1.083165 0.000000 53 1
2.842804 -0.958367 0.000000 54 1
2.882410 -0.831692 0.000000 55 1
2.663326 -1.380832 0.000000 56 1
2.721793 -1.261682 0.000000 57 1
2.774933 -1.140064 0.000000 58 1
2.822642 -1.016214 0.000000 59 1
2.864827 -0.890375 0.000000 60 1
2.901404 -0.762793 0.000000 61 1
2.932303 -0.633719 0.000000 62 1
2.751076 -1.196487 0.000000 63 1
2.801304 -1.073637 0.000000 64 1
2.846049 -0.948686 0.000000 65 1
2.885224 -0.821878 0.000000 66 1
2.918752 -0.693461 0.000000 67 1
2.946567 -0.563687 0.000000 68 1
2.968615 -0.432810 0.000000 69 1
2.826085 -1.006601 0.000000 70 1
2.867841 -0.880619 0.000000 71 1
2.903984 -0.752914 0.000000 72 1
2.934443 -0.623735 0.000000 73 1
2.959159 -0.493335 0.000000 74 1
2.978083 -0.361970 0.000000 75 1
2.991178 -0.229896 0.000000 76 1
2.888004 -0.812053 0.000000 77 1
2.921095 -0.683523 0.000000 78 1
2.948468 -0.553655 0.000000 79 1
2.970071 -0.422704 0.000000 80 1
2.985860 -0.290925 0.000000 81 1
2.995806 -0.158576 0.000000 82 1
2.999888 -0.025918 0.000000 83 1
2.936549 -0.613744 0.000000 84 1
2.960821 -0.483261 0.000000 85 1
2.979298 -0.351832 0.000000 86 1
2.991943 -0.219715 0.000000 87 1
2.998733 -0.087167 0.000000 88 1
2.999654 0.045551 0.000000 89 1
2.994704 0.178180 0.000000 90 1
2.971492 -0.412593 0.000000 91 1
2.986833 -0.280761 0.000000 92 1
2.996328 -0.148380 0.000000 93 1
2.999959 -0.015708 0.000000 94 1
2.997718 0.116995 0.000000 95 1
2.989610 0.249468 0.000000 96 1
2.975650 0.381454 0.000000 97 1
2.712136 -1.282310 0.000000 98 2
2.766198 -1.161099 0.000000 99 2
2.814846 -1.037614 0.000000 100 2
2.857984 -0.912099 0.000000 101 2
2.895529 -0.784799 0.000000 102 2
2.927407 -0.655963 0.000000 103 2
2.953555 -0.525842 0.000000 104 2
2.793072 -1.094874 0.000000 105 2
2.838764 -0.970266 0.000000 106 2
2.878901 -0.843759 0.000000 107 2
2.913403 -0.715600 0.000000 108 2
2.942203 -0.586041 0.000000 109 2
2.965244 -0.455335 0.000000 110 2
2.982481 -0.323738 0.000000 111 2
2.861072 -0.902367 0.000000 112 2
2.898184 -0.774940 0.000000 113 2
2.929623 -0.645996 0.000000 114 2
2.955328 -0.515787 0.000000 115 2
2.975249 -0.384569 0.000000 116 2
2.989347 -0.252599 0.000000 117 2
2.997594 -0.120134 0.000000 118 2
2.915821 -0.705681 0.000000 119 2
2.944180 -0.576024 0.000000 120 2
2.966776 -0.445241 0.000000 121 2
2.983566 -0.313585 0.000000 122 2
2.994516 -0.181316 0.000000 123 2
2.999605 -0.048693 0.000000 124 2
2.998823 0.084027 0.000000 125 2
2.957066 -0.505726 0.000000 126 2
2.976541 -0.374441 0.000000 127 2
2.990189 -0.242423 0.000000 128 2
2.997985 -0.109931 0.000000 129 2
2.999914 0.022776 0.000000 130 2
2.995970 0.155439 0.000000 131 2
2.986163 0.287798 0.000000 132 2
2.984616 -0.303429 0.000000 133 2
2.995115 -0.171124 0.000000 134 2
2.999753 -0.038483 0.000000 135 2
2.998520 0.094232 0.000000 136 2
2.991417 0.226764 0.000000 137 2
2.978460 0.358851 0.000000 138 2
2.959674 0.490236 0.000000 139 2
2.998342 -0.099727 0.000000 140 2
2.999819 0.032986 0.000000 141 2
2.995424 0.165635 0.000000 142 2
2.985167 0.297959 0.000000 143 2
2.969067 0.429701 0.000000 144 2
2.947156 0.560601 0.000000 145 2
2.919476 0.690404 0.000000 146 2
2.831316 -0.991790 0.000000 147 3
2.872412 -0.865592 0.000000 148 3
2.907886 -0.737699 0.000000 149 3
2.937668 -0.608362 0.000000 150 3
2.961701 -0.477834 0.000000 151 3
2.979937 -0.346372 0.000000 152 3
2.992341 -0.214231 0.000000 153 3
2.892217 -0.796921 0.000000 154 3
2.924634 -0.668219 0.000000 155 3
2.951327 -0.538210 0.000000 156 3
2.972244 -0.407147 0.000000 157 3
2.987343 -0.275287 0.000000 158 3
2.996595 -0.142888 0.000000 159 3
2.999983 -0.010210 0.000000 160 3
2.939722 -0.598360 0.000000 161 3
2.963310 -0.467752 0.000000 162 3
2.981099 -0.336228 0.000000 163 3
2.993053 -0.204046 0.000000 164 3
2.999149 -0.071464 0.000000 165 3
2.999375 0.061257 0.000000 166 3
2.993730 0.193858 0.000000 167 3
2.973612 -0.397029 0.000000 168 3
2.988262 -0.265118 0.000000 169 3
2.997064 -0.132689 0.000000 170 3
3.000000 0.000000 0.000000 171 3
2.997064 0.132689 0.000000 172 3
2.988262 0.265118 0.000000 173 3
2.973612 0.397029 0.000000 174 3
2.993730 -0.193858 0.000000 175 3
2.999375 -0.061257 0.000000 176 3
2.999149 0.071464 0.000000 177 3
2.993053 0.204046 0.000000 178 3
2.981099 0.336228 0.000000 179 3
2.963310 0.467752 0.000000 180 3
2.939722 0.598360 0.000000 181 3
2.999983 0.010210 0.000000 182 3
2.996595 0.142888 0.000000 183 3
2.987343 0.275287 0.000000 184 3
2.972244 0.407147 0.000000 185 3
2.951327 0.538210 0.000000 186 3
2.924634 0.668219 0.000000 187 3
2.892217 0.796921 0.000000 188 3
2.992341 0.214231 0.000000 189 3
2.979937 0.346372 0.000000 190 3
2.961701 0.477834 0.000000 191 3
2.937668 0.608362 0.000000 192 3
2.907886 0.737699 0.000000 193 3
2.872412 0.865592 0.000000 194 3
2.831316 0.991790 0.000000 195 3
2.919476 -0.690404 0.000000 196 4
2.947156 -0.560601 0.000000 197 4
2.969067 -0.429701 0.000000 198 4
2.985167 -0.297959 0.000000 199 4
2.995424 -0.165635 0.000000 200 4
2.999819 -0.032986 0.000000 201 4
2.998342 0.099727 0.000000 202 4
2.959674 -0.490236 0.000000 203 4
2.978460 -0.358851 0.000000 204 4
2.991417 -0.226764 0.000000 205 4
2.998520 -0.094232 0.000000 206 4
2.999753 0.038483 0.000000 207 4
2.995115 0.171124 0.000000 208 4
2.984616 0.303429 0.000000 209 4
2.986163 -0.287798 0.000000 210 4
2.995970 -0.155439 0.000000 211 4
2.999914 -0.022776 0.000000 212 4
2.997985 0.109931 0.000000 213 4
2.990189 0.242423 0.000000 214 4
2.976541 0.374441 0.000000 215 4
2.957066 0.505726 0.000000 216 4
2.998823 -0.084027 0.000000 217 4
2.999605 0.048693 0.000000 218 4
2.994516 0.181316 0.000000 219 4
2.983566 0.313585 0.000000 220 4
2.966776 0.445241 0.000000 221 4
2.944180 0.576024 0.000000 222 4
2.915821 0.705681 0.000000 223 4
2.997594 0.120134 0.000000 224 4
2.989347 0.252599 0.000000 225 4
2.975249 0.384569 0.000000 226 4
2.955328 0.515787 0.000000 227 4
2.929623 0.645996 0.000000 228 4
2.898184 0.774940 0.000000 229 4
2.861072 0.902367 0.000000 230 4
2.982481 0.323738 0.000000 231 4
2.965244 0.455335 0.000000 232 4
2.942203 0.586041 0.000000 233 4
2.913403 0.715600 0.000000 234 4
2.878901 0.843759 0.000000 235 4
2.838764 0.970266 0.000000 236 4
2.793072 1.094874 0.000000 237 4
2.953555 0.525842 0.000000 238 4
2.927407 0.655963 0.000000 239 4
2.895529 0.784799 0.000000 240 4
2.857984 0.912099 0.000000 241 4
2.814846 1.037614 0.000000 242 4
2.766198 1.161099 0.000000 243 4
2.712136 1.282310 0.000000 244 4
2.975650 -0.381454 0.000000 245 5
2.989610 -0.249468 0.000000 246 5
2.997718 -0.116995 0.000000 247 5
2.999959 0.015708 0.000000 248 5
2.996328 0.148380 0.000000 249 5
2.986833 0.280761 0.000000 250 5
2.971492 0.412593 0.000000 251 5
2.994704 -0.178180 0.000000 252 5
2.999654 -0.045551 0.000000 253 5
2.998733 0.087167 0.000000 254 5
2.991943 0.219715 0.000000 255 5
2.979298 0.351832 0.000000 256 5
2.960821 0.483261 0.000000 257 5
2.936549 0.613744 0.000000 258 5
2.999888 0.025918 0.000000 259 5
2.995806 0.158576 0.000000 260 5
2.985860 0.290925 0.000000 261 5
2.970071 0.422704 0.000000 262 5
2.948468 0.553655 0.000000 263 5
2.921095 0.683523 0.000000 264 5
2.888004 0.812053 0.000000 265 5
2.991178 0.229896 0.000000 266 5
2.978083 0.361970 0.000000 267 5
2.959159 0.493335 0.000000 268 5
2.934443 0.623735 0.000000 269 5
2.903984 0.752914 0.000000 270 5
2.867841 0.880619 0.000000 271 5
2.826085 1.006601 0.000000 272 5
2.968615 0.432810 0.000000 273 5
2.946567 0.563687 0.000000 274 5
2.918752 0.693461 0.000000 275 5
2.885224 0.821878 0.000000 276 5
2.846049 0.948686 0.000000 277 5
2.801304 1.073637 0.000000 278 5
2.751076 1.196487 0.000000 279 5
2.932303 0.633719 0.000000 280 5
2.901404 0.762793 0.000000 281 5
2.864827 0.890375 0.000000 282 5
2.822642 1.016214 0.000000 283 5
2.774933 1.140064 0.000000 284 5
2.721793 1.261682 0.000000 285 5
2.663326 1.380832 0.000000 286 5
2.882410 0.831692 0.000000 287 5
2.842804 0.958367 0.000000 288 5
2.797634 1.083165 0.000000 289 5
2.746988 1.205843 0.000000 290 5
2.690966 1.326162 0.000000 291 5
2.629676 1.443884 0.000000 292 5
2.563240 1.558781 0.000000 293 5
2.999222 -0.068324 0.000000 294 6
2.999309 0.064398 0.000000 295 6
2.993525 0.196993 0.000000 296 6
2.981883 0.329203 0.000000 297 6
2.964404 0.460768 0.000000 298 6
2.941124 0.591432 0.000000 299 6
2.912087 0.720938 0.000000 300 6
2.996924 0.135827 0.000000 301 6
2.987983 0.268247 0.000000 302 6
2.973195 0.400142 0.000000 303 6
2.952587 0.531254 0.000000 304 6
2.926200 0.661326 0.000000 305 6
2.894086 0.790104 0.000000 306 6
2.856308 0.917335 0.000000 307 6
2.980745 0.339350 0.000000 308 6
2.962819 0.470855 0.000000 309 6
2.939094 0.601438 0.000000 310 6
2.909616 0.730845 0.000000 311 6
2.874444 0.858821 0.000000 312 6
2.833645 0.985116 0.000000 313 6
2.787301 1.109484 0.000000 314 6
2.950762 0.541300 0.000000 315 6
2.923933 0.671281 0.000000 316 6
2.891381 0.799949 0.000000 317 6
2.853170 0.927051 0.000000 318 6
2.809374 1.052338 0.000000 319 6
2.760080 1.175566 0.000000 320 6
2.705384 1.296493 0.000000 321 6
2.907112 0.740743 0.000000 322 6
2.871504 0.868599 0.000000 323 6
2.830276 0.994755 0.000000 324 6
2.783509 1.118963 0.000000 325 6
2.731293 1.240982 0.000000 326 6
2.673732 1.360572 0.000000 327 6
2.610938 1.477499 0.000000 328 6
2.849998 0.936756 0.000000 329 6
2.805776 1.061894 0.000000 330 6
2.756064 1.184953 0.000000 331 6
2.700956 1.305693 0.000000 332 6
2.640563 1.423878 0.000000 333 6
2.575001 1.539276 0.000000 334 6
2.504399 1.651661 0.000000 335 6
2.779684 1.128430 0.000000 336 6
2.727054 1.250270 0.000000 337 6
2.669086 1.369664 0.000000 338 6
2.605895 1.486376 0.000000 339 6
2.537602 1.600179 0.000000 340 6
2.464344 1.710851 0.000000 341 6
2.386262 1.818173 0.000000 342 6
