ply
format ascii 1.0
element vertex 343
property float end_x
property float end_y
property float end_z
property int path_id
property int group_id
end_header
2.519135 -3.728801 0.000000 0 0
2.760874 -3.553530 0.000000 1 0
2.990457 -3.362613 0.000000 2 0
3.206873 -3.156891 0.000000 3 0
3.409171 -2.937270 0.000000 4 0
3.596458 -2.704716 0.000000 5 0
3.767910 -2.460254 0.000000 6 0
2.886071 -3.452621 0.000000 7 0
3.108687 -3.253623 0.000000 8 0
3.317615 -3.040301 0.000000 9 0
3.511937 -2.813592 0.000000 10 0
3.690796 -2.574495 0.000000 11 0
3.853405 -2.324064 0.000000 12 0
3.999048 -2.063400 0.000000 13 0
3.222948 -3.140479 0.000000 14 0
3.424121 -2.919828 0.000000 15 0
3.610219 -2.686321 0.000000 16 0
3.780421 -2.440987 0.000000 17 0
3.933979 -2.184905 0.000000 18 0
4.070216 -1.919204 0.000000 19 0
4.188532 -1.645053 0.000000 20 0
3.526255 -2.795627 0.000000 21 0
3.703891 -2.555620 0.000000 22 0
3.865219 -2.304362 0.000000 23 0
4.009529 -2.042957 0.000000 24 0
4.136186 -1.772558 0.000000 25 0
4.244632 -1.494355 0.000000 26 0
4.334390 -1.209572 0.000000 27 0
3.792833 -2.421656 0.000000 28 0
3.945082 -2.164794 0.000000 29 0
4.079960 -1.898400 0.000000 30 0
4.196876 -1.623649 0.000000 31 0
4.295313 -1.341748 0.000000 32 0
4.374838 -1.053940 0.000000 33 0
4.435102 -0.761492 0.000000 34 0
4.019907 -2.022462 0.000000 35 0
4.145182 -1.751420 0.000000 36 0
4.252206 -1.472666 0.000000 37 0
4.340508 -1.187429 0.000000 38 0
4.409700 -0.896963 0.000000 39 0
4.459477 -0.602549 0.000000 40 0
4.489619 -0.305481 0.000000 41 0
4.205110 -1.602202 0.000000 42 0
4.302106 -1.319803 0.000000 43 0
4.380162 -1.031593 0.000000 44 0
4.438932 -0.738841 0.000000 45 0
4.478158 -0.442836 0.000000 46 0
4.497667 -0.144881 0.000000 47 0
4.497374 0.153712 0.000000 48 0
3.071433 -3.288814 0.000000 49 1
3.282777 -3.077885 0.000000 50 1
3.479668 -2.853404 0.000000 51 1
3.661238 -2.616359 0.000000 52 1
3.826688 -2.367796 0.000000 53 1
3.975290 -2.108807 0.000000 54 1
4.106390 -1.840534 0.000000 55 1
3.390648 -2.958632 0.000000 56 1
3.579393 -2.727260 0.000000 57 1
3.752378 -2.483880 0.000000 58 1
3.908842 -2.229564 0.000000 59 1
4.048096 -1.965431 0.000000 60 1
4.169527 -1.692645 0.000000 61 1
4.272600 -1.412407 0.000000 62 1
3.674547 -2.597634 0.000000 63 1
3.838726 -2.348229 0.000000 64 1
3.986004 -2.088485 0.000000 65 1
4.115732 -1.819546 0.000000 66 1
4.227339 -1.542596 0.000000 67 1
4.320334 -1.258854 0.000000 68 1
4.394307 -0.969569 0.000000 69 1
3.920173 -2.209580 0.000000 70 1
4.058077 -1.944740 0.000000 71 1
4.178113 -1.671338 0.000000 72 1
4.279754 -1.390576 0.000000 73 1
4.362552 -1.103693 0.000000 74 1
4.426142 -0.811950 0.000000 75 1
4.470245 -0.516632 0.000000 76 1
4.124967 -1.798511 0.000000 77 1
4.235159 -1.520995 0.000000 78 1
4.326704 -1.236782 0.000000 79 1
4.399200 -0.947123 0.000000 80 1
4.452326 -0.653294 0.000000 81 1
4.485849 -0.356589 0.000000 82 1
4.499622 -0.058314 0.000000 83 1
4.286798 -1.368710 0.000000 84 1
4.368130 -1.081407 0.000000 85 1
4.430230 -0.789344 0.000000 86 1
4.472824 -0.493804 0.000000 87 1
4.495726 -0.196091 0.000000 88 1
4.498833 0.102486 0.000000 89 1
4.482132 0.400611 0.000000 90 1
4.403978 -0.924652 0.000000 91 1
4.455603 -0.630556 0.000000 92 1
4.487611 -0.333684 0.000000 93 1
4.499861 -0.035343 0.000000 94 1
4.492299 0.263155 0.000000 95 1
4.464958 0.560493 0.000000 96 1
4.417958 0.855364 0.000000 97 1
3.548102 -2.767846 0.000000 98 2
3.723848 -2.526451 0.000000 99 2
3.883198 -2.273933 0.000000 100 2
4.025451 -2.011404 0.000000 101 2
4.149980 -1.740018 0.000000 102 2
4.256238 -1.460972 0.000000 103 2
4.343756 -1.175493 0.000000 104 2
3.811736 -2.391793 0.000000 105 2
3.961962 -2.133743 0.000000 106 2
4.094744 -1.866298 0.000000 107 2
4.209498 -1.590637 0.000000 108 2
4.305718 -1.307972 0.000000 109 2
4.382981 -1.019548 0.000000 110 2
4.440946 -0.726636 0.000000 111 2
4.035667 -1.990827 0.000000 112 2
4.158809 -1.718810 0.000000 113 2
4.263641 -1.439224 0.000000 114 2
4.349700 -1.153302 0.000000 115 2
4.416609 -0.862302 0.000000 116 2
4.464072 -0.567506 0.000000 117 2
4.491880 -0.270211 0.000000 118 2
4.217564 -1.569126 0.000000 119 2
4.312339 -1.285974 0.000000 120 2
4.388129 -0.997160 0.000000 121 2
4.444598 -0.703955 0.000000 122 2
4.481498 -0.407651 0.000000 123 2
4.498666 -0.109552 0.000000 124 2
4.496028 0.189029 0.000000 125 2
4.355531 -1.131082 0.000000 126 2
4.420954 -0.839744 0.000000 127 2
4.466911 -0.544709 0.000000 128 2
4.493201 -0.247276 0.000000 129 2
4.499708 0.051246 0.000000 130 2
4.486404 0.349542 0.000000 131 2
4.453347 0.646300 0.000000 132 2
4.448133 -0.681256 0.000000 133 2
4.483520 -0.384767 0.000000 134 2
4.499167 -0.086585 0.000000 135 2
4.495004 0.211979 0.000000 136 2
4.471051 0.509610 0.000000 137 2
4.427412 0.804996 0.000000 138 2
4.364281 1.096839 0.000000 139 2
4.494405 -0.224335 0.000000 140 2
4.499388 0.074217 0.000000 141 2
4.484561 0.372441 0.000000 142 2
4.449989 0.669026 0.000000 143 2
4.395825 0.962665 0.000000 144 2
4.322306 1.252066 0.000000 145 2
4.229757 1.535954 0.000000 146 2
3.937406 -2.178723 0.000000 147 3
4.073225 -1.912808 0.000000 148 3
4.191111 -1.638472 0.000000 149 3
4.290544 -1.356921 0.000000 150 3
4.371086 -1.069396 0.000000 151 3
4.432383 -0.777162 0.000000 152 3
4.474165 -0.481507 0.000000 153 3
4.138966 -1.766059 0.000000 154 3
4.246974 -1.487685 0.000000 155 3
4.336285 -1.202762 0.000000 156 3
4.406503 -0.912543 0.000000 157 3
4.457320 -0.618306 0.000000 158 3
4.488512 -0.321347 0.000000 159 3
4.499941 -0.022973 0.000000 160 3
4.297415 -1.335000 0.000000 161 3
4.376488 -1.047067 0.000000 162 3
4.436293 -0.754525 0.000000 163 3
4.476565 -0.458660 0.000000 164 3
4.497127 -0.160776 0.000000 165 3
4.497889 0.137816 0.000000 166 3
4.478848 0.435801 0.000000 167 3
4.411104 -0.890035 0.000000 168 3
4.460418 -0.595543 0.000000 169 3
4.490094 -0.298428 0.000000 170 3
4.500000 0.000000 0.000000 171 3
4.490094 0.298428 0.000000 172 3
4.460418 0.595543 0.000000 173 3
4.411104 0.890035 0.000000 174 3
4.478848 -0.435801 0.000000 175 3
4.497889 -0.137816 0.000000 176 3
4.497127 0.160776 0.000000 177 3
4.476565 0.458660 0.000000 178 3
4.436293 0.754525 0.000000 179 3
4.376488 1.047067 0.000000 180 3
4.297415 1.335000 0.000000 181 3
4.499941 0.022973 0.000000 182 3
4.488512 0.321347 0.000000 183 3
4.457320 0.618306 0.000000 184 3
4.406503 0.912543 0.000000 185 3
4.336285 1.202762 0.000000 186 3
4.246974 1.487685 0.000000 187 3
4.138966 1.766059 0.000000 188 3
4.474165 0.481507 0.000000 189 3
4.432383 0.777162 0.000000 190 3
4.371086 1.069396 0.000000 191 3
4.290544 1.356921 0.000000 192 3
4.191111 1.638472 0.000000 193 3
4.073225 1.912808 0.000000 194 3
3.937406 2.178723 0.000000 195 3
4.229757 -1.535954 0.000000 196 4
4.322306 -1.252066 0.000000 197 4
4.395825 -0.962665 0.000000 198 4
4.449989 -0.669026 0.000000 199 4
4.484561 -0.372441 0.000000 200 4
4.499388 -0.074217 0.000000 201 4
4.494405 0.224335 0.000000 202 4
4.364281 -1.096839 0.000000 203 4
4.427412 -0.804996 0.000000 204 4
4.471051 -0.509610 0.000000 205 4
4.495004 -0.211979 0.000000 206 4
4.499167 0.086585 0.000000 207 4
4.483520 0.384767 0.000000 208 4
4.448133 0.681256 0.000000 209 4
4.453347 -0.646300 0.000000 210 4
4.486404 -0.349542 0.000000 211 4
4.499708 -0.051246 0.000000 212 4
4.493201 0.247276 0.000000 213 4
4.466911 0.544709 0.000000 214 4
4.420954 0.839744 0.000000 215 4
4.355531 1.131082 0.000000 216 4
4.496028 -0.189029 0.000000 217 4
4.498666 0.109552 0.000000 218 4
4.481498 0.407651 0.000000 219 4
4.444598 0.703955 0.000000 220 4
4.388129 0.997160 0.000000 221 4
4.312339 1.285974 0.000000 222 4
4.217564 1.569126 0.000000 223 4
4.491880 0.270211 0.000000 224 4
4.464072 0.567506 0.000000 225 4
4.416609 0.862302 0.000000 226 4
4.349700 1.153302 0.000000 227 4
4.263641 1.439224 0.000000 228 4
4.158809 1.718810 0.000000 229 4
4.035667 1.990827 0.000000 230 4
4.440946 0.726636 0.000000 231 4
4.382981 1.019548 0.000000 232 4
4.305718 1.307972 0.000000 233 4
4.209498 1.590637 0.000000 234 4
4.094744 1.866298 0.000000 235 4
3.961962 2.133743 0.000000 236 4
3.811736 2.391793 0.000000 237 4
4.343756 1.175493 0.000000 238 4
4.256238 1.460972 0.000000 239 4
4.149980 1.740018 0.000000 240 4
4.025451 2.011404 0.000000 241 4
3.883198 2.273933 0.000000 242 4
3.723848 2.526451 0.000000 243 4
3.548102 2.767846 0.000000 244 4
4.417958 -0.855364 0.000000 245 5
4.464958 -0.560493 0.000000 246 5
4.492299 -0.263155 0.000000 247 5
4.499861 0.035343 0.000000 248 5
4.487611 0.333684 0.000000 249 5
4.455603 0.630556 0.000000 250 5
4.403978 0.924652 0.000000 251 5
4.482132 -0.400611 0.000000 252 5
4.498833 -0.102486 0.000000 253 5
4.495726 0.196091 0.000000 254 5
4.472824 0.493804 0.000000 255 5
4.430230 0.789344 0.000000 256 5
4.368130 1.081407 0.000000 257 5
4.286798 1.368710 0.000000 258 5
4.499622 0.058314 0.000000 259 5
4.485849 0.356589 0.000000 260 5
4.452326 0.653294 0.000000 261 5
4.399200 0.947123 0.000000 262 5
4.326704 1.236782 0.000000 263 5
4.235159 1.520995 0.000000 264 5
4.124967 1.798511 0.000000 265 5
4.470245 0.516632 0.000000 266 5
4.426142 0.811950 0.000000 267 5
4.362552 1.103693 0.000000 268 5
4.279754 1.390576 0.000000 269 5
4.178113 1.671338 0.000000 270 5
4.058077 1.944740 0.000000 271 5
3.920173 2.209580 0.000000 272 5
4.394307 0.969569 0.000000 273 5
4.320334 1.258854 0.000000 274 5
4.227339 1.542596 0.000000 275 5
4.115732 1.819546 0.000000 276 5
3.986004 2.088485 0.000000 277 5
3.838726 2.348229 0.000000 278 5
3.674547 2.597634 0.000000 279 5
4.272600 1.412407 0.000000 280 5
4.169527 1.692645 0.000000 281 5
4.048096 1.965431 0.000000 282 5
3.908842 2.229564 0.000000 283 5
3.752378 2.483880 0.000000 284 5
3.579393 2.727260 0.000000 285 5
3.390648 2.958632 0.000000 286 5
4.106390 1.840534 0.000000 287 5
3.975290 2.108807 0.000000 288 5
3.826688 2.367796 0.000000 289 5
3.661238 2.616359 0.000000 290 5
3.479668 2.853404 0.000000 291 5
3.282777 3.077885 0.000000 292 5
3.071433 3.288814 0.000000 293 5
4.497374 -0.153712 0.000000 294 6
4.497667 0.144881 0.000000 295 6
4.478158 0.442836 0.000000 296 6
4.438932 0.738841 0.000000 297 6
4.380162 1.031593 0.000000 298 6
4.302106 1.319803 0.000000 299 6
4.205110 1.602202 0.000000 300 6
4.489619 0.305481 0.000000 301 6
4.459477 0.602549 0.000000 302 6
4.409700 0.896963 0.000000 303 6
4.340508 1.187429 0.000000 304 6
4.252206 1.472666 0.000000 305 6
4.145182 1.751420 0.000000 306 6
4.019907 2.022462 0.000000 307 6
4.435102 0.761492 0.000000 308 6
4.374838 1.053940 0.000000 309 6
4.295313 1.341748 0.000000 310 6
4.196876 1.623649 0.000000 311 6
4.079960 1.898400 0.000000 312 6
3.945082 2.164794 0.000000 313 6
3.792833 2.421656 0.000000 314 6
4.334390 1.209572 0.000000 315 6
4.244632 1.494355 0.000000 316 6
4.136186 1.772558 0.000000 317 6
4.009529 2.042957 0.000000 318 6
3.865219 2.304362 0.000000 319 6
3.703891 2.555620 0.000000 320 6
3.526255 2.795627 0.000000 321 6
4.188532 1.645053 0.000000 322 6
4.070216 1.919204 0.000000 323 6
3.933979 2.184905 0.000000 324 6
3.780421 2.440987 0.000000 325 6
3.610219 2.686321 0.000000 326 6
3.424121 2.919828 0.000000 327 6
3.222948 3.140479 0.000000 328 6
3.999048 2.063400 0.000000 329 6
3.853405 2.324064 0.000000 330 6
3.690796 2.574495 0.000000 331 6
3.511937 2.813592 0.000000 332 6
3.317615 3.040301 0.000000 333 6
3.108687 3.253623 0.000000 334 6
2.886071 3.452621 0.000000 335 6
3.767910 2.460254 0.000000 336 6
3.596458 2.704716 0.000000 337 6
3.409171 2.937270 0.000000 338 6
3.206873 3.156891 0.000000 339 6
2.990457 3.362613 0.000000 340 6
2.760874 3.553530 0.000000 341 6
2.519135 3.728801 0.000000 342 6
