ply
format ascii 1.0
element vertex 1057
property float x
property float y
property float z
property int group_id
end_header
0.000000 0.000000 0.000000 0
0.010000 -0.000031 0.000000 0
0.020000 -0.000126 0.000000 0
0.029999 -0.000283 0.000000 0
0.039997 -0.000503 0.000000 0
0.049994 -0.000785 0.000000 0
0.059989 -0.001131 0.000000 0
0.069983 -0.001539 0.000000 0
0.079975 -0.002010 0.000000 0
0.089964 -0.002544 0.000000 0
0.099951 -0.003141 0.000000 0
0.109934 -0.003801 0.000000 0
0.119915 -0.004523 0.000000 0
0.129892 -0.005308 0.000000 0
0.139865 -0.006156 0.000000 0
0.149833 -0.007066 0.000000 0
0.159798 -0.008039 0.000000 0
0.169758 -0.009075 0.000000 0
0.179712 -0.010173 0.000000 0
0.189662 -0.011334 0.000000 0
0.199605 -0.012558 0.000000 0
0.209543 -0.013844 0.000000 0
0.219475 -0.015193 0.000000 0
0.229400 -0.016605 0.000000 0
0.239318 -0.018078 0.000000 0
0.249229 -0.019615 0.000000 0
0.259133 -0.021214 0.000000 0
0.269029 -0.022875 0.000000 0
0.278917 -0.024598 0.000000 0
0.288797 -0.026384 0.000000 0
0.298669 -0.028232 0.000000 0
0.308531 -0.030143 0.000000 0
0.318384 -0.032116 0.000000 0
0.328228 -0.034151 0.000000 0
0.338062 -0.036248 0.000000 0
0.347886 -0.038407 0.000000 0
0.357700 -0.040628 0.000000 0
0.367503 -0.042912 0.000000 0
0.377295 -0.045257 0.000000 0
0.387076 -0.047664 0.000000 0
0.396846 -0.050133 0.000000 0
0.406604 -0.052664 0.000000 0
0.416349 -0.055257 0.000000 0
0.426082 -0.057912 0.000000 0
0.435803 -0.060628 0.000000 0
0.445511 -0.063406 0.000000 0
0.455205 -0.066245 0.000000 0
0.464886 -0.069146 0.000000 0
0.474553 -0.072108 0.000000 0
0.484206 -0.075132 0.000000 0
0.493844 -0.078217 0.000000 0
0.503468 -0.081364 0.000000 0
0.513077 -0.084571 0.000000 0
0.522670 -0.087840 0.000000 0
0.532248 -0.091170 0.000000 0
0.541810 -0.094561 0.000000 0
0.551356 -0.098013 0.000000 0
0.560885 -0.101526 0.000000 0
0.570398 -0.105099 0.000000 0
0.579894 -0.108734 0.000000 0
0.589372 -0.112429 0.000000 0
0.598833 -0.116184 0.000000 0
0.608276 -0.120001 0.000000 0
0.617701 -0.123877 0.000000 0
0.627107 -0.127814 0.000000 0
0.636495 -0.131812 0.000000 0
0.645863 -0.135869 0.000000 0
0.655213 -0.139987 0.000000 0
0.664542 -0.144165 0.000000 0
0.673852 -0.148403 0.000000 0
0.683142 -0.152700 0.000000 0
0.692411 -0.157058 0.000000 0
0.701659 -0.161475 0.000000 0
0.710887 -0.165952 0.000000 0
0.720093 -0.170488 0.000000 0
0.729277 -0.175084 0.000000 0
0.738440 -0.179739 0.000000 0
0.747581 -0.184454 0.000000 0
0.756699 -0.189227 0.000000 0
0.765794 -0.194060 0.000000 0
0.774867 -0.198952 0.000000 0
0.783916 -0.203903 0.000000 0
0.792941 -0.208912 0.000000 0
0.801943 -0.213980 0.000000 0
0.810921 -0.219107 0.000000 0
0.819874 -0.224292 0.000000 0
0.828802 -0.229536 0.000000 0
0.837706 -0.234838 0.000000 0
0.846584 -0.240198 0.000000 0
0.855437 -0.245616 0.000000 0
0.864264 -0.251092 0.000000 0
0.873065 -0.256626 0.000000 0
0.881840 -0.262218 0.000000 0
0.890588 -0.267867 0.000000 0
0.899309 -0.273574 0.000000 0
0.908003 -0.279338 0.000000 0
0.916670 -0.285160 0.000000 0
0.925309 -0.291039 0.000000 0
0.933920 -0.296975 0.000000 0
0.942502 -0.302967 0.000000 0
0.951057 -0.309017 0.000000 0
0.959582 -0.315123 0.000000 0
0.968078 -0.321286 0.000000 0
0.976545 -0.327506 0.000000 0
0.984982 -0.333781 0.000000 0
0.993390 -0.340113 0.000000 0
1.001767 -0.346501 0.000000 0
1.010114 -0.352945 0.000000 0
1.018430 -0.359445 0.000000 0
1.026715 -0.366001 0.000000 0
1.034969 -0.372612 0.000000 0
1.043191 -0.379278 0.000000 0
1.051382 -0.386000 0.000000 0
1.059541 -0.392777 0.000000 0
1.067667 -0.399609 0.000000 0
1.075761 -0.406496 0.000000 0
1.083822 -0.413438 0.000000 0
1.091849 -0.420434 0.000000 0
1.099844 -0.427485 0.000000 0
1.107805 -0.434590 0.000000 0
1.115732 -0.441749 0.000000 0
1.123625 -0.448963 0.000000 0
1.131483 -0.456230 0.000000 0
1.139307 -0.463551 0.000000 0
1.147096 -0.470926 0.000000 0
1.154849 -0.478354 0.000000 0
1.162568 -0.485836 0.000000 0
1.170250 -0.493371 0.000000 0
1.177897 -0.500958 0.000000 0
1.185507 -0.508599 0.000000 0
1.193081 -0.516292 0.000000 0
1.200618 -0.524038 0.000000 0
1.208118 -0.531836 0.000000 0
1.215581 -0.539687 0.000000 0
1.223007 -0.547590 0.000000 0
1.230394 -0.555544 0.000000 0
1.237744 -0.563551 0.000000 0
1.245056 -0.571609 0.000000 0
1.252329 -0.579718 0.000000 0
1.259563 -0.587879 0.000000 0
1.266758 -0.596091 0.000000 0
1.273914 -0.604354 0.000000 0
1.281030 -0.612668 0.000000 0
1.288107 -0.621032 0.000000 0
1.295144 -0.629447 0.000000 0
1.302140 -0.637912 0.000000 0
1.309096 -0.646427 0.000000 0
1.316011 -0.654992 0.000000 0
1.322885 -0.663607 0.000000 0
1.329718 -0.672272 0.000000 0
1.336510 -0.680986 0.000000 0
0.000000 0.000000 0.000000 1
0.010000 -0.000021 0.000000 1
0.020000 -0.000084 0.000000 1
0.029999 -0.000188 0.000000 1
0.039999 -0.000335 0.000000 1
0.049997 -0.000524 0.000000 1
0.059995 -0.000754 0.000000 1
0.069992 -0.001026 0.000000 1
0.079989 -0.001340 0.000000 1
0.089984 -0.001696 0.000000 1
0.099978 -0.002094 0.000000 1
0.109971 -0.002534 0.000000 1
0.119962 -0.003016 0.000000 1
0.129952 -0.003539 0.000000 1
0.139940 -0.004104 0.000000 1
0.149926 -0.004712 0.000000 1
0.159910 -0.005361 0.000000 1
0.169892 -0.006052 0.000000 1
0.179872 -0.006784 0.000000 1
0.189850 -0.007559 0.000000 1
0.199825 -0.008375 0.000000 1
0.209797 -0.009233 0.000000 1
0.219767 -0.010133 0.000000 1
0.229733 -0.011075 0.000000 1
0.239697 -0.012059 0.000000 1
0.249657 -0.013084 0.000000 1
0.259615 -0.014151 0.000000 1
0.269568 -0.015260 0.000000 1
0.279519 -0.016411 0.000000 1
0.289465 -0.017603 0.000000 1
0.299408 -0.018837 0.000000 1
0.309347 -0.020113 0.000000 1
0.319282 -0.021431 0.000000 1
0.329212 -0.022790 0.000000 1
0.339138 -0.024191 0.000000 1
0.349060 -0.025633 0.000000 1
0.358977 -0.027118 0.000000 1
0.368890 -0.028644 0.000000 1
0.378797 -0.030211 0.000000 1
0.388700 -0.031820 0.000000 1
0.398597 -0.033471 0.000000 1
0.408489 -0.035164 0.000000 1
0.418376 -0.036898 0.000000 1
0.428257 -0.038673 0.000000 1
0.438133 -0.040490 0.000000 1
0.448003 -0.042349 0.000000 1
0.457867 -0.044249 0.000000 1
0.467725 -0.046191 0.000000 1
0.477576 -0.048174 0.000000 1
0.487422 -0.050198 0.000000 1
0.497261 -0.052264 0.000000 1
0.507093 -0.054372 0.000000 1
0.516919 -0.056521 0.000000 1
0.526738 -0.058711 0.000000 1
0.536550 -0.060942 0.000000 1
0.546355 -0.063215 0.000000 1
0.556153 -0.065530 0.000000 1
0.565943 -0.067885 0.000000 1
0.575726 -0.070282 0.000000 1
0.585501 -0.072720 0.000000 1
0.595269 -0.075200 0.000000 1
0.605029 -0.077721 0.000000 1
0.614780 -0.080282 0.000000 1
0.624524 -0.082886 0.000000 1
0.634259 -0.085530 0.000000 1
0.643986 -0.088215 0.000000 1
0.653705 -0.090942 0.000000 1
0.663414 -0.093709 0.000000 1
0.673115 -0.096518 0.000000 1
0.682808 -0.099367 0.000000 1
0.692491 -0.102258 0.000000 1
0.702165 -0.105190 0.000000 1
0.711829 -0.108162 0.000000 1
0.721485 -0.111176 0.000000 1
0.731130 -0.114230 0.000000 1
0.740766 -0.117326 0.000000 1
0.750392 -0.120462 0.000000 1
0.760009 -0.123639 0.000000 1
0.769615 -0.126857 0.000000 1
0.779211 -0.130116 0.000000 1
0.788797 -0.133415 0.000000 1
0.798372 -0.136755 0.000000 1
0.807937 -0.140136 0.000000 1
0.817491 -0.143557 0.000000 1
0.827034 -0.147019 0.000000 1
0.836566 -0.150522 0.000000 1
0.846087 -0.154065 0.000000 1
0.855597 -0.157649 0.000000 1
0.865096 -0.161273 0.000000 1
0.874583 -0.164938 0.000000 1
0.884059 -0.168643 0.000000 1
0.893522 -0.172389 0.000000 1
0.902974 -0.176175 0.000000 1
0.912414 -0.180001 0.000000 1
0.921842 -0.183868 0.000000 1
0.931258 -0.187774 0.000000 1
0.940661 -0.191722 0.000000 1
0.950052 -0.195709 0.000000 1
0.959430 -0.199736 0.000000 1
0.968795 -0.203804 0.000000 1
0.978148 -0.207912 0.000000 1
0.987487 -0.212059 0.000000 1
0.996813 -0.216247 0.000000 1
1.006127 -0.220475 0.000000 1
1.015426 -0.224743 0.000000 1
1.024713 -0.229050 0.000000 1
1.033985 -0.233398 0.000000 1
1.043244 -0.237785 0.000000 1
1.052489 -0.242212 0.000000 1
1.061720 -0.246679 0.000000 1
1.070937 -0.251186 0.000000 1
1.080139 -0.255732 0.000000 1
1.089328 -0.260318 0.000000 1
1.098501 -0.264944 0.000000 1
1.107660 -0.269609 0.000000 1
1.116804 -0.274313 0.000000 1
1.125934 -0.279058 0.000000 1
1.135048 -0.283841 0.000000 1
1.144147 -0.288664 0.000000 1
1.153231 -0.293526 0.000000 1
1.162300 -0.298428 0.000000 1
1.171353 -0.303369 0.000000 1
1.180390 -0.308349 0.000000 1
1.189412 -0.313368 0.000000 1
1.198418 -0.318426 0.000000 1
1.207407 -0.323524 0.000000 1
1.216381 -0.328660 0.000000 1
1.225338 -0.333836 0.000000 1
1.234279 -0.339050 0.000000 1
1.243204 -0.344304 0.000000 1
1.252111 -0.349596 0.000000 1
1.261002 -0.354927 0.000000 1
1.269877 -0.360297 0.000000 1
1.278734 -0.365705 0.000000 1
1.287574 -0.371152 0.000000 1
1.296396 -0.376638 0.000000 1
1.305202 -0.382162 0.000000 1
1.313990 -0.387725 0.000000 1
1.322760 -0.393327 0.000000 1
1.331513 -0.398966 0.000000 1
1.340247 -0.404645 0.000000 1
1.348964 -0.410361 0.000000 1
1.357663 -0.416116 0.000000 1
1.366343 -0.421909 0.000000 1
1.375005 -0.427740 0.000000 1
1.383648 -0.433609 0.000000 1
1.392273 -0.439516 0.000000 1
1.400880 -0.445462 0.000000 1
1.409467 -0.451445 0.000000 1
1.418035 -0.457466 0.000000 1
1.426585 -0.463525 0.000000 1
0.000000 0.000000 0.000000 2
0.010000 -0.000010 0.000000 2
0.020000 -0.000042 0.000000 2
0.030000 -0.000094 0.000000 2
0.040000 -0.000168 0.000000 2
0.049999 -0.000262 0.000000 2
0.059999 -0.000377 0.000000 2
0.069998 -0.000513 0.000000 2
0.079997 -0.000670 0.000000 2
0.089996 -0.000848 0.000000 2
0.099995 -0.001047 0.000000 2
0.109993 -0.001267 0.000000 2
0.119991 -0.001508 0.000000 2
0.129988 -0.001770 0.000000 2
0.139985 -0.002052 0.000000 2
0.149981 -0.002356 0.000000 2
0.159978 -0.002681 0.000000 2
0.169973 -0.003026 0.000000 2
0.179968 -0.003393 0.000000 2
0.189962 -0.003780 0.000000 2
0.199956 -0.004188 0.000000 2
0.209949 -0.004618 0.000000 2
0.219942 -0.005068 0.000000 2
0.229933 -0.005539 0.000000 2
0.239924 -0.006031 0.000000 2
0.249914 -0.006544 0.000000 2
0.259904 -0.007078 0.000000 2
0.269892 -0.007633 0.000000 2
0.279880 -0.008209 0.000000 2
0.289866 -0.008806 0.000000 2
0.299852 -0.009423 0.000000 2
0.309837 -0.010062 0.000000 2
0.319820 -0.010721 0.000000 2
0.329803 -0.011402 0.000000 2
0.339785 -0.012103 0.000000 2
0.349765 -0.012825 0.000000 2
0.359744 -0.013568 0.000000 2
0.369722 -0.014333 0.000000 2
0.379699 -0.015118 0.000000 2
0.389675 -0.015923 0.000000 2
0.399649 -0.016750 0.000000 2
0.409622 -0.017598 0.000000 2
0.419594 -0.018467 0.000000 2
0.429564 -0.019356 0.000000 2
0.439533 -0.020267 0.000000 2
0.449500 -0.021198 0.000000 2
0.459466 -0.022150 0.000000 2
0.469431 -0.023123 0.000000 2
0.479394 -0.024117 0.000000 2
0.489355 -0.025132 0.000000 2
0.499315 -0.026168 0.000000 2
0.509273 -0.027225 0.000000 2
0.519229 -0.028302 0.000000 2
0.529184 -0.029401 0.000000 2
0.539137 -0.030520 0.000000 2
0.549088 -0.031660 0.000000 2
0.559037 -0.032821 0.000000 2
0.568985 -0.034003 0.000000 2
0.578931 -0.035206 0.000000 2
0.588874 -0.036430 0.000000 2
0.598816 -0.037674 0.000000 2
0.608756 -0.038940 0.000000 2
0.618694 -0.040226 0.000000 2
0.628629 -0.041533 0.000000 2
0.638563 -0.042861 0.000000 2
0.648495 -0.044210 0.000000 2
0.658424 -0.045580 0.000000 2
0.668352 -0.046970 0.000000 2
0.678277 -0.048382 0.000000 2
0.688200 -0.049814 0.000000 2
0.698120 -0.051267 0.000000 2
0.708038 -0.052741 0.000000 2
0.717954 -0.054235 0.000000 2
0.727868 -0.055751 0.000000 2
0.737779 -0.057287 0.000000 2
0.747688 -0.058844 0.000000 2
0.757594 -0.060422 0.000000 2
0.767498 -0.062021 0.000000 2
0.777399 -0.063641 0.000000 2
0.787298 -0.065281 0.000000 2
0.797194 -0.066942 0.000000 2
0.807088 -0.068624 0.000000 2
0.816979 -0.070327 0.000000 2
0.826867 -0.072051 0.000000 2
0.836752 -0.073795 0.000000 2
0.846635 -0.075560 0.000000 2
0.856515 -0.077346 0.000000 2
0.866392 -0.079153 0.000000 2
0.876266 -0.080980 0.000000 2
0.886137 -0.082828 0.000000 2
0.896006 -0.084697 0.000000 2
0.905871 -0.086587 0.000000 2
0.915734 -0.088498 0.000000 2
0.925593 -0.090429 0.000000 2
0.935449 -0.092381 0.000000 2
0.945303 -0.094354 0.000000 2
0.955153 -0.096347 0.000000 2
0.965000 -0.098361 0.000000 2
0.974844 -0.100396 0.000000 2
0.984685 -0.102452 0.000000 2
0.994522 -0.104528 0.000000 2
1.004356 -0.106626 0.000000 2
1.014187 -0.108743 0.000000 2
1.024014 -0.110882 0.000000 2
1.033838 -0.113041 0.000000 2
1.043659 -0.115221 0.000000 2
1.053476 -0.117422 0.000000 2
1.063290 -0.119643 0.000000 2
1.073100 -0.121885 0.000000 2
1.082907 -0.124148 0.000000 2
1.092710 -0.126431 0.000000 2
1.102510 -0.128735 0.000000 2
1.112305 -0.131060 0.000000 2
1.122098 -0.133405 0.000000 2
1.131886 -0.135771 0.000000 2
1.141671 -0.138157 0.000000 2
1.151452 -0.140565 0.000000 2
1.161229 -0.142992 0.000000 2
1.171003 -0.145441 0.000000 2
1.180772 -0.147910 0.000000 2
1.190538 -0.150400 0.000000 2
1.200299 -0.152910 0.000000 2
1.210057 -0.155441 0.000000 2
1.219811 -0.157993 0.000000 2
1.229560 -0.160565 0.000000 2
1.239306 -0.163158 0.000000 2
1.249048 -0.165771 0.000000 2
1.258785 -0.168405 0.000000 2
1.268518 -0.171060 0.000000 2
1.278247 -0.173735 0.000000 2
1.287972 -0.176430 0.000000 2
1.297693 -0.179146 0.000000 2
1.307409 -0.181883 0.000000 2
1.317121 -0.184640 0.000000 2
1.326829 -0.187418 0.000000 2
1.336532 -0.190217 0.000000 2
1.346231 -0.193036 0.000000 2
1.355925 -0.195875 0.000000 2
1.365615 -0.198735 0.000000 2
1.375300 -0.201615 0.000000 2
1.384981 -0.204516 0.000000 2
1.394658 -0.207438 0.000000 2
1.404329 -0.210380 0.000000 2
1.413996 -0.213342 0.000000 2
1.423659 -0.216325 0.000000 2
1.433316 -0.219328 0.000000 2
1.442969 -0.222352 0.000000 2
1.452617 -0.225396 0.000000 2
1.462260 -0.228461 0.000000 2
1.471899 -0.231546 0.000000 2
1.481533 -0.234652 0.000000 2
0.000000 0.000000 0.000000 3
0.010000 0.000000 0.000000 3
0.020000 0.000000 0.000000 3
0.030000 0.000000 0.000000 3
0.040000 0.000000 0.000000 3
0.050000 0.000000 0.000000 3
0.060000 0.000000 0.000000 3
0.070000 0.000000 0.000000 3
0.080000 0.000000 0.000000 3
0.090000 0.000000 0.000000 3
0.100000 0.000000 0.000000 3
0.110000 0.000000 0.000000 3
0.120000 0.000000 0.000000 3
0.130000 0.000000 0.000000 3
0.140000 0.000000 0.000000 3
0.150000 0.000000 0.000000 3
0.160000 0.000000 0.000000 3
0.170000 0.000000 0.000000 3
0.180000 0.000000 0.000000 3
0.190000 0.000000 0.000000 3
0.200000 0.000000 0.000000 3
0.210000 0.000000 0.000000 3
0.220000 0.000000 0.000000 3
0.230000 0.000000 0.000000 3
0.240000 0.000000 0.000000 3
0.250000 0.000000 0.000000 3
0.260000 0.000000 0.000000 3
0.270000 0.000000 0.000000 3
0.280000 0.000000 0.000000 3
0.290000 0.000000 0.000000 3
0.300000 0.000000 0.000000 3
0.310000 0.000000 0.000000 3
0.320000 0.000000 0.000000 3
0.330000 0.000000 0.000000 3
0.340000 0.000000 0.000000 3
0.350000 0.000000 0.000000 3
0.360000 0.000000 0.000000 3
0.370000 0.000000 0.000000 3
0.380000 0.000000 0.000000 3
0.390000 0.000000 0.000000 3
0.400000 0.000000 0.000000 3
0.410000 0.000000 0.000000 3
0.420000 0.000000 0.000000 3
0.430000 0.000000 0.000000 3
0.440000 0.000000 0.000000 3
0.450000 0.000000 0.000000 3
0.460000 0.000000 0.000000 3
0.470000 0.000000 0.000000 3
0.480000 0.000000 0.000000 3
0.490000 0.000000 0.000000 3
0.500000 0.000000 0.000000 3
0.510000 0.000000 0.000000 3
0.520000 0.000000 0.000000 3
0.530000 0.000000 0.000000 3
0.540000 0.000000 0.000000 3
0.550000 0.000000 0.000000 3
0.560000 0.000000 0.000000 3
0.570000 0.000000 0.000000 3
0.580000 0.000000 0.000000 3
0.590000 0.000000 0.000000 3
0.600000 0.000000 0.000000 3
0.610000 0.000000 0.000000 3
0.620000 0.000000 0.000000 3
0.630000 0.000000 0.000000 3
0.640000 0.000000 0.000000 3
0.650000 0.000000 0.000000 3
0.660000 0.000000 0.000000 3
0.670000 0.000000 0.000000 3
0.680000 0.000000 0.000000 3
0.690000 0.000000 0.000000 3
0.700000 0.000000 0.000000 3
0.710000 0.000000 0.000000 3
0.720000 0.000000 0.000000 3
0.730000 0.000000 0.000000 3
0.740000 0.000000 0.000000 3
0.750000 0.000000 0.000000 3
0.760000 0.000000 0.000000 3
0.770000 0.000000 0.000000 3
0.780000 0.000000 0.000000 3
0.790000 0.000000 0.000000 3
0.800000 0.000000 0.000000 3
0.810000 0.000000 0.000000 3
0.820000 0.000000 0.000000 3
0.830000 0.000000 0.000000 3
0.840000 0.000000 0.000000 3
0.850000 0.000000 0.000000 3
0.860000 0.000000 0.000000 3
0.870000 0.000000 0.000000 3
0.880000 0.000000 0.000000 3
0.890000 0.000000 0.000000 3
0.900000 0.000000 0.000000 3
0.910000 0.000000 0.000000 3
0.920000 0.000000 0.000000 3
0.930000 0.000000 0.000000 3
0.940000 0.000000 0.000000 3
0.950000 0.000000 0.000000 3
0.960000 0.000000 0.000000 3
0.970000 0.000000 0.000000 3
0.980000 0.000000 0.000000 3
0.990000 0.000000 0.000000 3
1.000000 0.000000 0.000000 3
1.010000 0.000000 0.000000 3
1.020000 0.000000 0.000000 3
1.030000 0.000000 0.000000 3
1.040000 0.000000 0.000000 3
1.050000 0.000000 0.000000 3
1.060000 0.000000 0.000000 3
1.070000 0.000000 0.000000 3
1.080000 0.000000 0.000000 3
1.090000 0.000000 0.000000 3
1.100000 0.000000 0.000000 3
1.110000 0.000000 0.000000 3
1.120000 0.000000 0.000000 3
1.130000 0.000000 0.000000 3
1.140000 0.000000 0.000000 3
1.150000 0.000000 0.000000 3
1.160000 0.000000 0.000000 3
1.170000 0.000000 0.000000 3
1.180000 0.000000 0.000000 3
1.190000 0.000000 0.000000 3
1.200000 0.000000 0.000000 3
1.210000 0.000000 0.000000 3
1.220000 0.000000 0.000000 3
1.230000 0.000000 0.000000 3
1.240000 0.000000 0.000000 3
1.250000 0.000000 0.000000 3
1.260000 0.000000 0.000000 3
1.270000 0.000000 0.000000 3
1.280000 0.000000 0.000000 3
1.290000 0.000000 0.000000 3
1.300000 0.000000 0.000000 3
1.310000 0.000000 0.000000 3
1.320000 0.000000 0.000000 3
1.330000 0.000000 0.000000 3
1.340000 0.000000 0.000000 3
1.350000 0.000000 0.000000 3
1.360000 0.000000 0.000000 3
1.370000 0.000000 0.000000 3
1.380000 0.000000 0.000000 3
1.390000 0.000000 0.000000 3
1.400000 0.000000 0.000000 3
1.410000 0.000000 0.000000 3
1.420000 0.000000 0.000000 3
1.430000 0.000000 0.000000 3
1.440000 0.000000 0.000000 3
1.450000 0.000000 0.000000 3
1.460000 0.000000 0.000000 3
1.470000 0.000000 0.000000 3
1.480000 0.000000 0.000000 3
1.490000 0.000000 0.000000 3
1.500000 0.000000 0.000000 3
0.000000 0.000000 0.000000 4
0.010000 0.000010 0.000000 4
0.020000 0.000042 0.000000 4
0.030000 0.000094 0.000000 4
0.040000 0.000168 0.000000 4
0.049999 0.000262 0.000000 4
0.059999 0.000377 0.000000 4
0.069998 0.000513 0.000000 4
0.079997 0.000670 0.000000 4
0.089996 0.000848 0.000000 4
0.099995 0.001047 0.000000 4
0.109993 0.001267 0.000000 4
0.119991 0.001508 0.000000 4
0.129988 0.001770 0.000000 4
0.139985 0.002052 0.000000 4
0.149981 0.002356 0.000000 4
0.159978 0.002681 0.000000 4
0.169973 0.003026 0.000000 4
0.179968 0.003393 0.000000 4
0.189962 0.003780 0.000000 4
0.199956 0.004188 0.000000 4
0.209949 0.004618 0.000000 4
0.219942 0.005068 0.000000 4
0.229933 0.005539 0.000000 4
0.239924 0.006031 0.000000 4
0.249914 0.006544 0.000000 4
0.259904 0.007078 0.000000 4
0.269892 0.007633 0.000000 4
0.279880 0.008209 0.000000 4
0.289866 0.008806 0.000000 4
0.299852 0.009423 0.000000 4
0.309837 0.010062 0.000000 4
0.319820 0.010721 0.000000 4
0.329803 0.011402 0.000000 4
0.339785 0.012103 0.000000 4
0.349765 0.012825 0.000000 4
0.359744 0.013568 0.000000 4
0.369722 0.014333 0.000000 4
0.379699 0.015118 0.000000 4
0.389675 0.015923 0.000000 4
0.399649 0.016750 0.000000 4
0.409622 0.017598 0.000000 4
0.419594 0.018467 0.000000 4
0.429564 0.019356 0.000000 4
0.439533 0.020267 0.000000 4
0.449500 0.021198 0.000000 4
0.459466 0.022150 0.000000 4
0.469431 0.023123 0.000000 4
0.479394 0.024117 0.000000 4
0.489355 0.025132 0.000000 4
0.499315 0.026168 0.000000 4
0.509273 0.027225 0.000000 4
0.519229 0.028302 0.000000 4
0.529184 0.029401 0.000000 4
0.539137 0.030520 0.000000 4
0.549088 0.031660 0.000000 4
0.559037 0.032821 0.000000 4
0.568985 0.034003 0.000000 4
0.578931 0.035206 0.000000 4
0.588874 0.036430 0.000000 4
0.598816 0.037674 0.000000 4
0.608756 0.038940 0.000000 4
0.618694 0.040226 0.000000 4
0.628629 0.041533 0.000000 4
0.638563 0.042861 0.000000 4
0.648495 0.044210 0.000000 4
0.658424 0.045580 0.000000 4
0.668352 0.046970 0.000000 4
0.678277 0.048382 0.000000 4
0.688200 0.049814 0.000000 4
0.698120 0.051267 0.000000 4
0.708038 0.052741 0.000000 4
0.717954 0.054235 0.000000 4
0.727868 0.055751 0.000000 4
0.737779 0.057287 0.000000 4
0.747688 0.058844 0.000000 4
0.757594 0.060422 0.000000 4
0.767498 0.062021 0.000000 4
0.777399 0.063641 0.000000 4
0.787298 0.065281 0.000000 4
0.797194 0.066942 0.000000 4
0.807088 0.068624 0.000000 4
0.816979 0.070327 0.000000 4
0.826867 0.072051 0.000000 4
0.836752 0.073795 0.000000 4
0.846635 0.075560 0.000000 4
0.856515 0.077346 0.000000 4
0.866392 0.079153 0.000000 4
0.876266 0.080980 0.000000 4
0.886137 0.082828 0.000000 4
0.896006 0.084697 0.000000 4
0.905871 0.086587 0.000000 4
0.915734 0.088498 0.000000 4
0.925593 0.090429 0.000000 4
0.935449 0.092381 0.000000 4
0.945303 0.094354 0.000000 4
0.955153 0.096347 0.000000 4
0.965000 0.098361 0.000000 4
0.974844 0.100396 0.000000 4
0.984685 0.102452 0.000000 4
0.994522 0.104528 0.000000 4
1.004356 0.106626 0.000000 4
1.014187 0.108743 0.000000 4
1.024014 0.110882 0.000000 4
1.033838 0.113041 0.000000 4
1.043659 0.115221 0.000000 4
1.053476 0.117422 0.000000 4
1.063290 0.119643 0.000000 4
1.073100 0.121885 0.000000 4
1.082907 0.124148 0.000000 4
1.092710 0.126431 0.000000 4
1.102510 0.128735 0.000000 4
1.112305 0.131060 0.000000 4
1.122098 0.133405 0.000000 4
1.131886 0.135771 0.000000 4
1.141671 0.138157 0.000000 4
1.151452 0.140565 0.000000 4
1.161229 0.142992 0.000000 4
1.171003 0.145441 0.000000 4
1.180772 0.147910 0.000000 4
1.190538 0.150400 0.000000 4
1.200299 0.152910 0.000000 4
1.210057 0.155441 0.000000 4
1.219811 0.157993 0.000000 4
1.229560 0.160565 0.000000 4
1.239306 0.163158 0.000000 4
1.249048 0.165771 0.000000 4
1.258785 0.168405 0.000000 4
1.268518 0.171060 0.000000 4
1.278247 0.173735 0.000000 4
1.287972 0.176430 0.000000 4
1.297693 0.179146 0.000000 4
1.307409 0.181883 0.000000 4
1.317121 0.184640 0.000000 4
1.326829 0.187418 0.000000 4
1.336532 0.190217 0.000000 4
1.346231 0.193036 0.000000 4
1.355925 0.195875 0.000000 4
1.365615 0.198735 0.000000 4
1.375300 0.201615 0.000000 4
1.384981 0.204516 0.000000 4
1.394658 0.207438 0.000000 4
1.404329 0.210380 0.000000 4
1.413996 0.213342 0.000000 4
1.423659 0.216325 0.000000 4
1.433316 0.219328 0.000000 4
1.442969 0.222352 0.000000 4
1.452617 0.225396 0.000000 4
1.462260 0.228461 0.000000 4
1.471899 0.231546 0.000000 4
1.481533 0.234652 0.000000 4
0.000000 0.000000 0.000000 5
0.010000 0.000021 0.000000 5
0.020000 0.000084 0.000000 5
0.029999 0.000188 0.000000 5
0.039999 0.000335 0.000000 5
0.049997 0.000524 0.000000 5
0.059995 0.000754 0.000000 5
0.069992 0.001026 0.000000 5
0.079989 0.001340 0.000000 5
0.089984 0.001696 0.000000 5
0.099978 0.002094 0.000000 5
0.109971 0.002534 0.000000 5
0.119962 0.003016 0.000000 5
0.129952 0.003539 0.000000 5
0.139940 0.004104 0.000000 5
0.149926 0.004712 0.000000 5
0.159910 0.005361 0.000000 5
0.169892 0.006052 0.000000 5
0.179872 0.006784 0.000000 5
0.189850 0.007559 0.000000 5
0.199825 0.008375 0.000000 5
0.209797 0.009233 0.000000 5
0.219767 0.010133 0.000000 5
0.229733 0.011075 0.000000 5
0.239697 0.012059 0.000000 5
0.249657 0.013084 0.000000 5
0.259615 0.014151 0.000000 5
0.269568 0.015260 0.000000 5
0.279519 0.016411 0.000000 5
0.289465 0.017603 0.000000 5
0.299408 0.018837 0.000000 5
0.309347 0.020113 0.000000 5
0.319282 0.021431 0.000000 5
0.329212 0.022790 0.000000 5
0.339138 0.024191 0.000000 5
0.349060 0.025633 0.000000 5
0.358977 0.027118 0.000000 5
0.368890 0.028644 0.000000 5
0.378797 0.030211 0.000000 5
0.388700 0.031820 0.000000 5
0.398597 0.033471 0.000000 5
0.408489 0.035164 0.000000 5
0.418376 0.036898 0.000000 5
0.428257 0.038673 0.000000 5
0.438133 0.040490 0.000000 5
0.448003 0.042349 0.000000 5
0.457867 0.044249 0.000000 5
0.467725 0.046191 0.000000 5
0.477576 0.048174 0.000000 5
0.487422 0.050198 0.000000 5
0.497261 0.052264 0.000000 5
0.507093 0.054372 0.000000 5
0.516919 0.056521 0.000000 5
0.526738 0.058711 0.000000 5
0.536550 0.060942 0.000000 5
0.546355 0.063215 0.000000 5
0.556153 0.065530 0.000000 5
0.565943 0.067885 0.000000 5
0.575726 0.070282 0.000000 5
0.585501 0.072720 0.000000 5
0.595269 0.075200 0.000000 5
0.605029 0.077721 0.000000 5
0.614780 0.080282 0.000000 5
0.624524 0.082886 0.000000 5
0.634259 0.085530 0.000000 5
0.643986 0.088215 0.000000 5
0.653705 0.090942 0.000000 5
0.663414 0.093709 0.000000 5
0.673115 0.096518 0.000000 5
0.682808 0.099367 0.000000 5
0.692491 0.102258 0.000000 5
0.702165 0.105190 0.000000 5
0.711829 0.108162 0.000000 5
0.721485 0.111176 0.000000 5
0.731130 0.114230 0.000000 5
0.740766 0.117326 0.000000 5
0.750392 0.120462 0.000000 5
0.760009 0.123639 0.000000 5
0.769615 0.126857 0.000000 5
0.779211 0.130116 0.000000 5
0.788797 0.133415 0.000000 5
0.798372 0.136755 0.000000 5
0.807937 0.140136 0.000000 5
0.817491 0.143557 0.000000 5
0.827034 0.147019 0.000000 5
0.836566 0.150522 0.000000 5
0.846087 0.154065 0.000000 5
0.855597 0.157649 0.000000 5
0.865096 0.161273 0.000000 5
0.874583 0.164938 0.000000 5
0.884059 0.168643 0.000000 5
0.893522 0.172389 0.000000 5
0.902974 0.176175 0.000000 5
0.912414 0.180001 0.000000 5
0.921842 0.183868 0.000000 5
0.931258 0.187774 0.000000 5
0.940661 0.191722 0.000000 5
0.950052 0.195709 0.000000 5
0.959430 0.199736 0.000000 5
0.968795 0.203804 0.000000 5
0.978148 0.207912 0.000000 5
0.987487 0.212059 0.000000 5
0.996813 0.216247 0.000000 5
1.006127 0.220475 0.000000 5
1.015426 0.224743 0.000000 5
1.024713 0.229050 0.000000 5
1.033985 0.233398 0.000000 5
1.043244 0.237785 0.000000 5
1.052489 0.242212 0.000000 5
1.061720 0.246679 0.000000 5
1.070937 0.251186 0.000000 5
1.080139 0.255732 0.000000 5
1.089328 0.260318 0.000000 5
1.098501 0.264944 0.000000 5
1.107660 0.269609 0.000000 5
1.116804 0.274313 0.000000 5
1.125934 0.279058 0.000000 5
1.135048 0.283841 0.000000 5
1.144147 0.288664 0.000000 5
1.153231 0.293526 0.000000 5
1.162300 0.298428 0.000000 5
1.171353 0.303369 0.000000 5
1.180390 0.308349 0.000000 5
1.189412 0.313368 0.000000 5
1.198418 0.318426 0.000000 5
1.207407 0.323524 0.000000 5
1.216381 0.328660 0.000000 5
1.225338 0.333836 0.000000 5
1.234279 0.339050 0.000000 5
1.243204 0.344304 0.000000 5
1.252111 0.349596 0.000000 5
1.261002 0.354927 0.000000 5
1.269877 0.360297 0.000000 5
1.278734 0.365705 0.000000 5
1.287574 0.371152 0.000000 5
1.296396 0.376638 0.000000 5
1.305202 0.382162 0.000000 5
1.313990 0.387725 0.000000 5
1.322760 0.393327 0.000000 5
1.331513 0.398966 0.000000 5
1.340247 0.404645 0.000000 5
1.348964 0.410361 0.000000 5
1.357663 0.416116 0.000000 5
1.366343 0.421909 0.000000 5
1.375005 0.427740 0.000000 5
1.383648 0.433609 0.000000 5
1.392273 0.439516 0.000000 5
1.400880 0.445462 0.000000 5
1.409467 0.451445 0.000000 5
1.418035 0.457466 0.000000 5
1.426585 0.463525 0.000000 5
0.000000 0.000000 0.000000 6
0.010000 0.000031 0.000000 6
0.020000 0.000126 0.000000 6
0.029999 0.000283 0.000000 6
0.039997 0.000503 0.000000 6
0.049994 0.000785 0.000000 6
0.059989 0.001131 0.000000 6
0.069983 0.001539 0.000000 6
0.079975 0.002010 0.000000 6
0.089964 0.002544 0.000000 6
0.099951 0.003141 0.000000 6
0.109934 0.003801 0.000000 6
0.119915 0.004523 0.000000 6
0.129892 0.005308 0.000000 6
0.139865 0.006156 0.000000 6
0.149833 0.007066 0.000000 6
0.159798 0.008039 0.000000 6
0.169758 0.009075 0.000000 6
0.179712 0.010173 0.000000 6
0.189662 0.011334 0.000000 6
0.199605 0.012558 0.000000 6
0.209543 0.013844 0.000000 6
0.219475 0.015193 0.000000 6
0.229400 0.016605 0.000000 6
0.239318 0.018078 0.000000 6
0.249229 0.019615 0.000000 6
0.259133 0.021214 0.000000 6
0.269029 0.022875 0.000000 6
0.278917 0.024598 0.000000 6
0.288797 0.026384 0.000000 6
0.298669 0.028232 0.000000 6
0.308531 0.030143 0.000000 6
0.318384 0.032116 0.000000 6
0.328228 0.034151 0.000000 6
0.338062 0.036248 0.000000 6
0.347886 0.038407 0.000000 6
0.357700 0.040628 0.000000 6
0.367503 0.042912 0.000000 6
0.377295 0.045257 0.000000 6
0.387076 0.047664 0.000000 6
0.396846 0.050133 0.000000 6
0.406604 0.052664 0.000000 6
0.416349 0.055257 0.000000 6
0.426082 0.057912 0.000000 6
0.435803 0.060628 0.000000 6
0.445511 0.063406 0.000000 6
0.455205 0.066245 0.000000 6
0.464886 0.069146 0.000000 6
0.474553 0.072108 0.000000 6
0.484206 0.075132 0.000000 6
0.493844 0.078217 0.000000 6
0.503468 0.081364 0.000000 6
0.513077 0.084571 0.000000 6
0.522670 0.087840 0.000000 6
0.532248 0.091170 0.000000 6
0.541810 0.094561 0.000000 6
0.551356 0.098013 0.000000 6
0.560885 0.101526 0.000000 6
0.570398 0.105099 0.000000 6
0.579894 0.108734 0.000000 6
0.589372 0.112429 0.000000 6
0.598833 0.116184 0.000000 6
0.608276 0.120001 0.000000 6
0.617701 0.123877 0.000000 6
0.627107 0.127814 0.000000 6
0.636495 0.131812 0.000000 6
0.645863 0.135869 0.000000 6
0.655213 0.139987 0.000000 6
0.664542 0.144165 0.000000 6
0.673852 0.148403 0.000000 6
0.683142 0.152700 0.000000 6
0.692411 0.157058 0.000000 6
0.701659 0.161475 0.000000 6
0.710887 0.165952 0.000000 6
0.720093 0.170488 0.000000 6
0.729277 0.175084 0.000000 6
0.738440 0.179739 0.000000 6
0.747581 0.184454 0.000000 6
0.756699 0.189227 0.000000 6
0.765794 0.194060 0.000000 6
0.774867 0.198952 0.000000 6
0.783916 0.203903 0.000000 6
0.792941 0.208912 0.000000 6
0.801943 0.213980 0.000000 6
0.810921 0.219107 0.000000 6
0.819874 0.224292 0.000000 6
0.828802 0.229536 0.000000 6
0.837706 0.234838 0.000000 6
0.846584 0.240198 0.000000 6
0.855437 0.245616 0.000000 6
0.864264 0.251092 0.000000 6
0.873065 0.256626 0.000000 6
0.881840 0.262218 0.000000 6
0.890588 0.267867 0.000000 6
0.899309 0.273574 0.000000 6
0.908003 0.279338 0.000000 6
0.916670 0.285160 0.000000 6
0.925309 0.291039 0.000000 6
0.933920 0.296975 0.000000 6
0.942502 0.302967 0.000000 6
0.951057 0.309017 0.000000 6
0.959582 0.315123 0.000000 6
0.968078 0.321286 0.000000 6
0.976545 0.327506 0.000000 6
0.984982 0.333781 0.000000 6
0.993390 0.340113 0.000000 6
1.001767 0.346501 0.000000 6
1.010114 0.352945 0.000000 6
1.018430 0.359445 0.000000 6
1.026715 0.366001 0.000000 6
1.034969 0.372612 0.000000 6
1.043191 0.379278 0.000000 6
1.051382 0.386000 0.000000 6
1.059541 0.392777 0.000000 6
1.067667 0.399609 0.000000 6
1.075761 0.406496 0.000000 6
1.083822 0.413438 0.000000 6
1.091849 0.420434 0.000000 6
1.099844 0.427485 0.000000 6
1.107805 0.434590 0.000000 6
1.115732 0.441749 0.000000 6
1.123625 0.448963 0.000000 6
1.131483 0.456230 0.000000 6
1.139307 0.463551 0.000000 6
1.147096 0.470926 0.000000 6
1.154849 0.478354 0.000000 6
1.162568 0.485836 0.000000 6
1.170250 0.493371 0.000000 6
1.177897 0.500958 0.000000 6
1.185507 0.508599 0.000000 6
1.193081 0.516292 0.000000 6
1.200618 0.524038 0.000000 6
1.208118 0.531836 0.000000 6
1.215581 0.539687 0.000000 6
1.223007 0.547590 0.000000 6
1.230394 0.555544 0.000000 6
1.237744 0.563551 0.000000 6
1.245056 0.571609 0.000000 6
1.252329 0.579718 0.000000 6
1.259563 0.587879 0.000000 6
1.266758 0.596091 0.000000 6
1.273914 0.604354 0.000000 6
1.281030 0.612668 0.000000 6
1.288107 0.621032 0.000000 6
1.295144 0.629447 0.000000 6
1.302140 0.637912 0.000000 6
1.309096 0.646427 0.000000 6
1.316011 0.654992 0.000000 6
1.322885 0.663607 0.000000 6
1.329718 0.672272 0.000000 6
1.336510 0.680986 0.000000 6
