ply
format ascii 1.0
element vertex 707
property float x
property float y
property float z
property int group_id
end_header
0.000000 0.000000 0.000000 0
0.010000 -0.000026 0.000000 0
0.020000 -0.000105 0.000000 0
0.029999 -0.000236 0.000000 0
0.039998 -0.000419 0.000000 0
0.049996 -0.000654 0.000000 0
0.059993 -0.000942 0.000000 0
0.069988 -0.001283 0.000000 0
0.079982 -0.001675 0.000000 0
0.089975 -0.002120 0.000000 0
0.099966 -0.002618 0.000000 0
0.109954 -0.003167 0.000000 0
0.119941 -0.003769 0.000000 0
0.129925 -0.004424 0.000000 0
0.139906 -0.005130 0.000000 0
0.149884 -0.005889 0.000000 0
0.159860 -0.006700 0.000000 0
0.169832 -0.007564 0.000000 0
0.179800 -0.008479 0.000000 0
0.189765 -0.009447 0.000000 0
0.199726 -0.010467 0.000000 0
0.209683 -0.011540 0.000000 0
0.219635 -0.012664 0.000000 0
0.229583 -0.013841 0.000000 0
0.239526 -0.015070 0.000000 0
0.249465 -0.016351 0.000000 0
0.259398 -0.017684 0.000000 0
0.269326 -0.019069 0.000000 0
0.279248 -0.020507 0.000000 0
0.289165 -0.021996 0.000000 0
0.299075 -0.023538 0.000000 0
0.308980 -0.025131 0.000000 0
0.318878 -0.026777 0.000000 0
0.328769 -0.028475 0.000000 0
0.338654 -0.030224 0.000000 0
0.348532 -0.032026 0.000000 0
0.358402 -0.033879 0.000000 0
0.368266 -0.035784 0.000000 0
0.378121 -0.037742 0.000000 0
0.387969 -0.039751 0.000000 0
0.397809 -0.041811 0.000000 0
0.407640 -0.043924 0.000000 0
0.417464 -0.046088 0.000000 0
0.427278 -0.048305 0.000000 0
0.437084 -0.050572 0.000000 0
0.446881 -0.052892 0.000000 0
0.456668 -0.055263 0.000000 0
0.466447 -0.057686 0.000000 0
0.476215 -0.060160 0.000000 0
0.485974 -0.062686 0.000000 0
0.495722 -0.065263 0.000000 0
0.505461 -0.067892 0.000000 0
0.515189 -0.070572 0.000000 0
0.524906 -0.073304 0.000000 0
0.534613 -0.076087 0.000000 0
0.544308 -0.078921 0.000000 0
0.553993 -0.081806 0.000000 0
0.563665 -0.084743 0.000000 0
0.573326 -0.087731 0.000000 0
0.582976 -0.090770 0.000000 0
0.592613 -0.093861 0.000000 0
0.602238 -0.097002 0.000000 0
0.611851 -0.100194 0.000000 0
0.621450 -0.103438 0.000000 0
0.631037 -0.106732 0.000000 0
0.640611 -0.110077 0.000000 0
0.650172 -0.113473 0.000000 0
0.659719 -0.116920 0.000000 0
0.669253 -0.120418 0.000000 0
0.678773 -0.123966 0.000000 0
0.688278 -0.127565 0.000000 0
0.697770 -0.131214 0.000000 0
0.707247 -0.134915 0.000000 0
0.716709 -0.138665 0.000000 0
0.726157 -0.142466 0.000000 0
0.735589 -0.146318 0.000000 0
0.745006 -0.150220 0.000000 0
0.754408 -0.154172 0.000000 0
0.763794 -0.158174 0.000000 0
0.773164 -0.162227 0.000000 0
0.782518 -0.166329 0.000000 0
0.791856 -0.170482 0.000000 0
0.801177 -0.174685 0.000000 0
0.810482 -0.178938 0.000000 0
0.819770 -0.183240 0.000000 0
0.829041 -0.187593 0.000000 0
0.838295 -0.191995 0.000000 0
0.847531 -0.196447 0.000000 0
0.856749 -0.200949 0.000000 0
0.865950 -0.205500 0.000000 0
0.875133 -0.210101 0.000000 0
0.884297 -0.214751 0.000000 0
0.893444 -0.219451 0.000000 0
0.902571 -0.224200 0.000000 0
0.911680 -0.228998 0.000000 0
0.920769 -0.233846 0.000000 0
0.929840 -0.238742 0.000000 0
0.938891 -0.243688 0.000000 0
0.947922 -0.248683 0.000000 0
0.956934 -0.253726 0.000000 0
0.965926 -0.258819 0.000000 0
0.000000 0.000000 0.000000 1
0.010000 -0.000017 0.000000 1
0.020000 -0.000070 0.000000 1
0.030000 -0.000157 0.000000 1
0.039999 -0.000279 0.000000 1
0.049998 -0.000436 0.000000 1
0.059997 -0.000628 0.000000 1
0.069995 -0.000855 0.000000 1
0.079992 -0.001117 0.000000 1
0.089989 -0.001414 0.000000 1
0.099985 -0.001745 0.000000 1
0.109980 -0.002112 0.000000 1
0.119974 -0.002513 0.000000 1
0.129967 -0.002949 0.000000 1
0.139958 -0.003421 0.000000 1
0.149949 -0.003927 0.000000 1
0.159938 -0.004467 0.000000 1
0.169925 -0.005043 0.000000 1
0.179911 -0.005654 0.000000 1
0.189896 -0.006299 0.000000 1
0.199878 -0.006980 0.000000 1
0.209859 -0.007695 0.000000 1
0.219838 -0.008445 0.000000 1
0.229815 -0.009230 0.000000 1
0.239789 -0.010050 0.000000 1
0.249762 -0.010905 0.000000 1
0.259732 -0.011794 0.000000 1
0.269700 -0.012719 0.000000 1
0.279666 -0.013678 0.000000 1
0.289629 -0.014672 0.000000 1
0.299589 -0.015701 0.000000 1
0.309546 -0.016764 0.000000 1
0.319501 -0.017863 0.000000 1
0.329453 -0.018996 0.000000 1
0.339402 -0.020164 0.000000 1
0.349347 -0.021367 0.000000 1
0.359290 -0.022605 0.000000 1
0.369229 -0.023877 0.000000 1
0.379165 -0.025184 0.000000 1
0.389097 -0.026526 0.000000 1
0.399026 -0.027903 0.000000 1
0.408951 -0.029314 0.000000 1
0.418872 -0.030760 0.000000 1
0.428790 -0.032241 0.000000 1
0.438703 -0.033756 0.000000 1
0.448613 -0.035307 0.000000 1
0.458518 -0.036892 0.000000 1
0.468420 -0.038511 0.000000 1
0.478317 -0.040165 0.000000 1
0.488209 -0.041854 0.000000 1
0.498097 -0.043578 0.000000 1
0.507981 -0.045336 0.000000 1
0.517860 -0.047129 0.000000 1
0.527734 -0.048956 0.000000 1
0.537603 -0.050818 0.000000 1
0.547468 -0.052715 0.000000 1
0.557327 -0.054646 0.000000 1
0.567182 -0.056612 0.000000 1
0.577031 -0.058613 0.000000 1
0.586875 -0.060648 0.000000 1
0.596713 -0.062717 0.000000 1
0.606546 -0.064821 0.000000 1
0.616374 -0.066960 0.000000 1
0.626195 -0.069133 0.000000 1
0.636011 -0.071340 0.000000 1
0.645822 -0.073582 0.000000 1
0.655626 -0.075859 0.000000 1
0.665424 -0.078169 0.000000 1
0.675217 -0.080515 0.000000 1
0.685003 -0.082894 0.000000 1
0.694782 -0.085309 0.000000 1
0.704556 -0.087757 0.000000 1
0.714323 -0.090240 0.000000 1
0.724083 -0.092757 0.000000 1
0.733837 -0.095309 0.000000 1
0.743584 -0.097895 0.000000 1
0.753324 -0.100515 0.000000 1
0.763057 -0.103169 0.000000 1
0.772783 -0.105858 0.000000 1
0.782502 -0.108581 0.000000 1
0.792214 -0.111338 0.000000 1
0.801919 -0.114130 0.000000 1
0.811617 -0.116956 0.000000 1
0.821306 -0.119816 0.000000 1
0.830989 -0.122710 0.000000 1
0.840663 -0.125638 0.000000 1
0.850330 -0.128600 0.000000 1
0.859990 -0.131597 0.000000 1
0.869641 -0.134628 0.000000 1
0.879284 -0.137692 0.000000 1
0.888920 -0.140791 0.000000 1
0.898547 -0.143924 0.000000 1
0.908165 -0.147091 0.000000 1
0.917776 -0.150292 0.000000 1
0.927378 -0.153526 0.000000 1
0.936971 -0.156795 0.000000 1
0.946556 -0.160098 0.000000 1
0.956132 -0.163435 0.000000 1
0.965700 -0.166805 0.000000 1
0.975258 -0.170210 0.000000 1
0.984808 -0.173648 0.000000 1
0.000000 0.000000 0.000000 2
0.010000 -0.000009 0.000000 2
0.020000 -0.000035 0.000000 2
0.030000 -0.000079 0.000000 2
0.040000 -0.000140 0.000000 2
0.050000 -0.000218 0.000000 2
0.059999 -0.000314 0.000000 2
0.069999 -0.000428 0.000000 2
0.079998 -0.000559 0.000000 2
0.089997 -0.000707 0.000000 2
0.099996 -0.000873 0.000000 2
0.109995 -0.001056 0.000000 2
0.119993 -0.001257 0.000000 2
0.129992 -0.001475 0.000000 2
0.139990 -0.001710 0.000000 2
0.149987 -0.001963 0.000000 2
0.159984 -0.002234 0.000000 2
0.169981 -0.002522 0.000000 2
0.179978 -0.002827 0.000000 2
0.189974 -0.003150 0.000000 2
0.199970 -0.003490 0.000000 2
0.209965 -0.003848 0.000000 2
0.219959 -0.004223 0.000000 2
0.229954 -0.004616 0.000000 2
0.239947 -0.005026 0.000000 2
0.249941 -0.005454 0.000000 2
0.259933 -0.005899 0.000000 2
0.269925 -0.006361 0.000000 2
0.279916 -0.006841 0.000000 2
0.289907 -0.007338 0.000000 2
0.299897 -0.007853 0.000000 2
0.309887 -0.008385 0.000000 2
0.319875 -0.008935 0.000000 2
0.329863 -0.009502 0.000000 2
0.339850 -0.010087 0.000000 2
0.349837 -0.010688 0.000000 2
0.359822 -0.011308 0.000000 2
0.369807 -0.011945 0.000000 2
0.379791 -0.012599 0.000000 2
0.389774 -0.013271 0.000000 2
0.399756 -0.013960 0.000000 2
0.409738 -0.014666 0.000000 2
0.419718 -0.015390 0.000000 2
0.429697 -0.016132 0.000000 2
0.439676 -0.016891 0.000000 2
0.449653 -0.017667 0.000000 2
0.459629 -0.018461 0.000000 2
0.469605 -0.019272 0.000000 2
0.479579 -0.020100 0.000000 2
0.489552 -0.020946 0.000000 2
0.499524 -0.021810 0.000000 2
0.509495 -0.022691 0.000000 2
0.519465 -0.023589 0.000000 2
0.529433 -0.024504 0.000000 2
0.539401 -0.025437 0.000000 2
0.549367 -0.026388 0.000000 2
0.559331 -0.027356 0.000000 2
0.569295 -0.028341 0.000000 2
0.579257 -0.029344 0.000000 2
0.589218 -0.030364 0.000000 2
0.599178 -0.031402 0.000000 2
0.609136 -0.032457 0.000000 2
0.619093 -0.033529 0.000000 2
0.629048 -0.034619 0.000000 2
0.639002 -0.035726 0.000000 2
0.648955 -0.036850 0.000000 2
0.658906 -0.037992 0.000000 2
0.668855 -0.039152 0.000000 2
0.678803 -0.040328 0.000000 2
0.688750 -0.041522 0.000000 2
0.698694 -0.042734 0.000000 2
0.708638 -0.043963 0.000000 2
0.718579 -0.045209 0.000000 2
0.728519 -0.046473 0.000000 2
0.738458 -0.047754 0.000000 2
0.748394 -0.049052 0.000000 2
0.758329 -0.050368 0.000000 2
0.768262 -0.051701 0.000000 2
0.778194 -0.053052 0.000000 2
0.788123 -0.054420 0.000000 2
0.798051 -0.055805 0.000000 2
0.807977 -0.057208 0.000000 2
0.817901 -0.058628 0.000000 2
0.827824 -0.060065 0.000000 2
0.837744 -0.061520 0.000000 2
0.847663 -0.062992 0.000000 2
0.857579 -0.064482 0.000000 2
0.867494 -0.065989 0.000000 2
0.877406 -0.067513 0.000000 2
0.887317 -0.069054 0.000000 2
0.897226 -0.070613 0.000000 2
0.907132 -0.072189 0.000000 2
0.917037 -0.073783 0.000000 2
0.926939 -0.075394 0.000000 2
0.936839 -0.077022 0.000000 2
0.946737 -0.078668 0.000000 2
0.956633 -0.080331 0.000000 2
0.966527 -0.082011 0.000000 2
0.976418 -0.083709 0.000000 2
0.986308 -0.085424 0.000000 2
0.996195 -0.087156 0.000000 2
0.000000 0.000000 0.000000 3
0.010000 0.000000 0.000000 3
0.020000 0.000000 0.000000 3
0.030000 0.000000 0.000000 3
0.040000 0.000000 0.000000 3
0.050000 0.000000 0.000000 3
0.060000 0.000000 0.000000 3
0.070000 0.000000 0.000000 3
0.080000 0.000000 0.000000 3
0.090000 0.000000 0.000000 3
0.100000 0.000000 0.000000 3
0.110000 0.000000 0.000000 3
0.120000 0.000000 0.000000 3
0.130000 0.000000 0.000000 3
0.140000 0.000000 0.000000 3
0.150000 0.000000 0.000000 3
0.160000 0.000000 0.000000 3
0.170000 0.000000 0.000000 3
0.180000 0.000000 0.000000 3
0.190000 0.000000 0.000000 3
0.200000 0.000000 0.000000 3
0.210000 0.000000 0.000000 3
0.220000 0.000000 0.000000 3
0.230000 0.000000 0.000000 3
0.240000 0.000000 0.000000 3
0.250000 0.000000 0.000000 3
0.260000 0.000000 0.000000 3
0.270000 0.000000 0.000000 3
0.280000 0.000000 0.000000 3
0.290000 0.000000 0.000000 3
0.300000 0.000000 0.000000 3
0.310000 0.000000 0.000000 3
0.320000 0.000000 0.000000 3
0.330000 0.000000 0.000000 3
0.340000 0.000000 0.000000 3
0.350000 0.000000 0.000000 3
0.360000 0.000000 0.000000 3
0.370000 0.000000 0.000000 3
0.380000 0.000000 0.000000 3
0.390000 0.000000 0.000000 3
0.400000 0.000000 0.000000 3
0.410000 0.000000 0.000000 3
0.420000 0.000000 0.000000 3
0.430000 0.000000 0.000000 3
0.440000 0.000000 0.000000 3
0.450000 0.000000 0.000000 3
0.460000 0.000000 0.000000 3
0.470000 0.000000 0.000000 3
0.480000 0.000000 0.000000 3
0.490000 0.000000 0.000000 3
0.500000 0.000000 0.000000 3
0.510000 0.000000 0.000000 3
0.520000 0.000000 0.000000 3
0.530000 0.000000 0.000000 3
0.540000 0.000000 0.000000 3
0.550000 0.000000 0.000000 3
0.560000 0.000000 0.000000 3
0.570000 0.000000 0.000000 3
0.580000 0.000000 0.000000 3
0.590000 0.000000 0.000000 3
0.600000 0.000000 0.000000 3
0.610000 0.000000 0.000000 3
0.620000 0.000000 0.000000 3
0.630000 0.000000 0.000000 3
0.640000 0.000000 0.000000 3
0.650000 0.000000 0.000000 3
0.660000 0.000000 0.000000 3
0.670000 0.000000 0.000000 3
0.680000 0.000000 0.000000 3
0.690000 0.000000 0.000000 3
0.700000 0.000000 0.000000 3
0.710000 0.000000 0.000000 3
0.720000 0.000000 0.000000 3
0.730000 0.000000 0.000000 3
0.740000 0.000000 0.000000 3
0.750000 0.000000 0.000000 3
0.760000 0.000000 0.000000 3
0.770000 0.000000 0.000000 3
0.780000 0.000000 0.000000 3
0.790000 0.000000 0.000000 3
0.800000 0.000000 0.000000 3
0.810000 0.000000 0.000000 3
0.820000 0.000000 0.000000 3
0.830000 0.000000 0.000000 3
0.840000 0.000000 0.000000 3
0.850000 0.000000 0.000000 3
0.860000 0.000000 0.000000 3
0.870000 0.000000 0.000000 3
0.880000 0.000000 0.000000 3
0.890000 0.000000 0.000000 3
0.900000 0.000000 0.000000 3
0.910000 0.000000 0.000000 3
0.920000 0.000000 0.000000 3
0.930000 0.000000 0.000000 3
0.940000 0.000000 0.000000 3
0.950000 0.000000 0.000000 3
0.960000 0.000000 0.000000 3
0.970000 0.000000 0.000000 3
0.980000 0.000000 0.000000 3
0.990000 0.000000 0.000000 3
1.000000 0.000000 0.000000 3
0.000000 0.000000 0.000000 4
0.010000 0.000009 0.000000 4
0.020000 0.000035 0.000000 4
0.030000 0.000079 0.000000 4
0.040000 0.000140 0.000000 4
0.050000 0.000218 0.000000 4
0.059999 0.000314 0.000000 4
0.069999 0.000428 0.000000 4
0.079998 0.000559 0.000000 4
0.089997 0.000707 0.000000 4
0.099996 0.000873 0.000000 4
0.109995 0.001056 0.000000 4
0.119993 0.001257 0.000000 4
0.129992 0.001475 0.000000 4
0.139990 0.001710 0.000000 4
0.149987 0.001963 0.000000 4
0.159984 0.002234 0.000000 4
0.169981 0.002522 0.000000 4
0.179978 0.002827 0.000000 4
0.189974 0.003150 0.000000 4
0.199970 0.003490 0.000000 4
0.209965 0.003848 0.000000 4
0.219959 0.004223 0.000000 4
0.229954 0.004616 0.000000 4
0.239947 0.005026 0.000000 4
0.249941 0.005454 0.000000 4
0.259933 0.005899 0.000000 4
0.269925 0.006361 0.000000 4
0.279916 0.006841 0.000000 4
0.289907 0.007338 0.000000 4
0.299897 0.007853 0.000000 4
0.309887 0.008385 0.000000 4
0.319875 0.008935 0.000000 4
0.329863 0.009502 0.000000 4
0.339850 0.010087 0.000000 4
0.349837 0.010688 0.000000 4
0.359822 0.011308 0.000000 4
0.369807 0.011945 0.000000 4
0.379791 0.012599 0.000000 4
0.389774 0.013271 0.000000 4
0.399756 0.013960 0.000000 4
0.409738 0.014666 0.000000 4
0.419718 0.015390 0.000000 4
0.429697 0.016132 0.000000 4
0.439676 0.016891 0.000000 4
0.449653 0.017667 0.000000 4
0.459629 0.018461 0.000000 4
0.469605 0.019272 0.000000 4
0.479579 0.020100 0.000000 4
0.489552 0.020946 0.000000 4
0.499524 0.021810 0.000000 4
0.509495 0.022691 0.000000 4
0.519465 0.023589 0.000000 4
0.529433 0.024504 0.000000 4
0.539401 0.025437 0.000000 4
0.549367 0.026388 0.000000 4
0.559331 0.027356 0.000000 4
0.569295 0.028341 0.000000 4
0.579257 0.029344 0.000000 4
0.589218 0.030364 0.000000 4
0.599178 0.031402 0.000000 4
0.609136 0.032457 0.000000 4
0.619093 0.033529 0.000000 4
0.629048 0.034619 0.000000 4
0.639002 0.035726 0.000000 4
0.648955 0.036850 0.000000 4
0.658906 0.037992 0.000000 4
0.668855 0.039152 0.000000 4
0.678803 0.040328 0.000000 4
0.688750 0.041522 0.000000 4
0.698694 0.042734 0.000000 4
0.708638 0.043963 0.000000 4
0.718579 0.045209 0.000000 4
0.728519 0.046473 0.000000 4
0.738458 0.047754 0.000000 4
0.748394 0.049052 0.000000 4
0.758329 0.050368 0.000000 4
0.768262 0.051701 0.000000 4
0.778194 0.053052 0.000000 4
0.788123 0.054420 0.000000 4
0.798051 0.055805 0.000000 4
0.807977 0.057208 0.000000 4
0.817901 0.058628 0.000000 4
0.827824 0.060065 0.000000 4
0.837744 0.061520 0.000000 4
0.847663 0.062992 0.000000 4
0.857579 0.064482 0.000000 4
0.867494 0.065989 0.000000 4
0.877406 0.067513 0.000000 4
0.887317 0.069054 0.000000 4
0.897226 0.070613 0.000000 4
0.907132 0.072189 0.000000 4
0.917037 0.073783 0.000000 4
0.926939 0.075394 0.000000 4
0.936839 0.077022 0.000000 4
0.946737 0.078668 0.000000 4
0.956633 0.080331 0.000000 4
0.966527 0.082011 0.000000 4
0.976418 0.083709 0.000000 4
0.986308 0.085424 0.000000 4
0.996195 0.087156 0.000000 4
0.000000 0.000000 0.000000 5
0.010000 0.000017 0.000000 5
0.020000 0.000070 0.000000 5
0.030000 0.000157 0.000000 5
0.039999 0.000279 0.000000 5
0.049998 0.000436 0.000000 5
0.059997 0.000628 0.000000 5
0.069995 0.000855 0.000000 5
0.079992 0.001117 0.000000 5
0.089989 0.001414 0.000000 5
0.099985 0.001745 0.000000 5
0.109980 0.002112 0.000000 5
0.119974 0.002513 0.000000 5
0.129967 0.002949 0.000000 5
0.139958 0.003421 0.000000 5
0.149949 0.003927 0.000000 5
0.159938 0.004467 0.000000 5
0.169925 0.005043 0.000000 5
0.179911 0.005654 0.000000 5
0.189896 0.006299 0.000000 5
0.199878 0.006980 0.000000 5
0.209859 0.007695 0.000000 5
0.219838 0.008445 0.000000 5
0.229815 0.009230 0.000000 5
0.239789 0.010050 0.000000 5
0.249762 0.010905 0.000000 5
0.259732 0.011794 0.000000 5
0.269700 0.012719 0.000000 5
0.279666 0.013678 0.000000 5
0.289629 0.014672 0.000000 5
0.299589 0.015701 0.000000 5
0.309546 0.016764 0.000000 5
0.319501 0.017863 0.000000 5
0.329453 0.018996 0.000000 5
0.339402 0.020164 0.000000 5
0.349347 0.021367 0.000000 5
0.359290 0.022605 0.000000 5
0.369229 0.023877 0.000000 5
0.379165 0.025184 0.000000 5
0.389097 0.026526 0.000000 5
0.399026 0.027903 0.000000 5
0.408951 0.029314 0.000000 5
0.418872 0.030760 0.000000 5
0.428790 0.032241 0.000000 5
0.438703 0.033756 0.000000 5
0.448613 0.035307 0.000000 5
0.458518 0.036892 0.000000 5
0.468420 0.038511 0.000000 5
0.478317 0.040165 0.000000 5
0.488209 0.041854 0.000000 5
0.498097 0.043578 0.000000 5
0.507981 0.045336 0.000000 5
0.517860 0.047129 0.000000 5
0.527734 0.048956 0.000000 5
0.537603 0.050818 0.000000 5
0.547468 0.052715 0.000000 5
0.557327 0.054646 0.000000 5
0.567182 0.056612 0.000000 5
0.577031 0.058613 0.000000 5
0.586875 0.060648 0.000000 5
0.596713 0.062717 0.000000 5
0.606546 0.064821 0.000000 5
0.616374 0.066960 0.000000 5
0.626195 0.069133 0.000000 5
0.636011 0.071340 0.000000 5
0.645822 0.073582 0.000000 5
0.655626 0.075859 0.000000 5
0.665424 0.078169 0.000000 5
0.675217 0.080515 0.000000 5
0.685003 0.082894 0.000000 5
0.694782 0.085309 0.000000 5
0.704556 0.087757 0.000000 5
0.714323 0.090240 0.000000 5
0.724083 0.092757 0.000000 5
0.733837 0.095309 0.000000 5
0.743584 0.097895 0.000000 5
0.753324 0.100515 0.000000 5
0.763057 0.103169 0.000000 5
0.772783 0.105858 0.000000 5
0.782502 0.108581 0.000000 5
0.792214 0.111338 0.000000 5
0.801919 0.114130 0.000000 5
0.811617 0.116956 0.000000 5
0.821306 0.119816 0.000000 5
0.830989 0.122710 0.000000 5
0.840663 0.125638 0.000000 5
0.850330 0.128600 0.000000 5
0.859990 0.131597 0.000000 5
0.869641 0.134628 0.000000 5
0.879284 0.137692 0.000000 5
0.888920 0.140791 0.000000 5
0.898547 0.143924 0.000000 5
0.908165 0.147091 0.000000 5
0.917776 0.150292 0.000000 5
0.927378 0.153526 0.000000 5
0.936971 0.156795 0.000000 5
0.946556 0.160098 0.000000 5
0.956132 0.163435 0.000000 5
0.965700 0.166805 0.000000 5
0.975258 0.170210 0.000000 5
0.984808 0.173648 0.000000 5
0.000000 0.000000 0.000000 6
0.010000 0.000026 0.000000 6
0.020000 0.000105 0.000000 6
0.029999 0.000236 0.000000 6
0.039998 0.000419 0.000000 6
0.049996 0.000654 0.000000 6
0.059993 0.000942 0.000000 6
0.069988 0.001283 0.000000 6
0.079982 0.001675 0.000000 6
0.089975 0.002120 0.000000 6
0.099966 0.002618 0.000000 6
0.109954 0.003167 0.000000 6
0.119941 0.003769 0.000000 6
0.129925 0.004424 0.000000 6
0.139906 0.005130 0.000000 6
0.149884 0.005889 0.000000 6
0.159860 0.006700 0.000000 6
0.169832 0.007564 0.000000 6
0.179800 0.008479 0.000000 6
0.189765 0.009447 0.000000 6
0.199726 0.010467 0.000000 6
0.209683 0.011540 0.000000 6
0.219635 0.012664 0.000000 6
0.229583 0.013841 0.000000 6
0.239526 0.015070 0.000000 6
0.249465 0.016351 0.000000 6
0.259398 0.017684 0.000000 6
0.269326 0.019069 0.000000 6
0.279248 0.020507 0.000000 6
0.289165 0.021996 0.000000 6
0.299075 0.023538 0.000000 6
0.308980 0.025131 0.000000 6
0.318878 0.026777 0.000000 6
0.328769 0.028475 0.000000 6
0.338654 0.030224 0.000000 6
0.348532 0.032026 0.000000 6
0.358402 0.033879 0.000000 6
0.368266 0.035784 0.000000 6
0.378121 0.037742 0.000000 6
0.387969 0.039751 0.000000 6
0.397809 0.041811 0.000000 6
0.407640 0.043924 0.000000 6
0.417464 0.046088 0.000000 6
0.427278 0.048305 0.000000 6
0.437084 0.050572 0.000000 6
0.446881 0.052892 0.000000 6
0.456668 0.055263 0.000000 6
0.466447 0.057686 0.000000 6
0.476215 0.060160 0.000000 6
0.485974 0.062686 0.000000 6
0.495722 0.065263 0.000000 6
0.505461 0.067892 0.000000 6
0.515189 0.070572 0.000000 6
0.524906 0.073304 0.000000 6
0.534613 0.076087 0.000000 6
0.544308 0.078921 0.000000 6
0.553993 0.081806 0.000000 6
0.563665 0.084743 0.000000 6
0.573326 0.087731 0.000000 6
0.582976 0.090770 0.000000 6
0.592613 0.093861 0.000000 6
0.602238 0.097002 0.000000 6
0.611851 0.100194 0.000000 6
0.621450 0.103438 0.000000 6
0.631037 0.106732 0.000000 6
0.640611 0.110077 0.000000 6
0.650172 0.113473 0.000000 6
0.659719 0.116920 0.000000 6
0.669253 0.120418 0.000000 6
0.678773 0.123966 0.000000 6
0.688278 0.127565 0.000000 6
0.697770 0.131214 0.000000 6
0.707247 0.134915 0.000000 6
0.716709 0.138665 0.000000 6
0.726157 0.142466 0.000000 6
0.735589 0.146318 0.000000 6
0.745006 0.150220 0.000000 6
0.754408 0.154172 0.000000 6
0.763794 0.158174 0.000000 6
0.773164 0.162227 0.000000 6
0.782518 0.166329 0.000000 6
0.791856 0.170482 0.000000 6
0.801177 0.174685 0.000000 6
0.810482 0.178938 0.000000 6
0.819770 0.183240 0.000000 6
0.829041 0.187593 0.000000 6
0.838295 0.191995 0.000000 6
0.847531 0.196447 0.000000 6
0.856749 0.200949 0.000000 6
0.865950 0.205500 0.000000 6
0.875133 0.210101 0.000000 6
0.884297 0.214751 0.000000 6
0.893444 0.219451 0.000000 6
0.902571 0.224200 0.000000 6
0.911680 0.228998 0.000000 6
0.920769 0.233846 0.000000 6
0.929840 0.238742 0.000000 6
0.938891 0.243688 0.000000 6
0.947922 0.248683 0.000000 6
0.956934 0.253726 0.000000 6
0.965926 0.258819 0.000000 6
