ply
format ascii 1.0
element vertex 343
property float end_x
property float end_y
property float end_z
property int path_id
property int group_id
end_header
1.938772 -2.289359 0.000000 0 0
2.070375 -2.171071 0.000000 1 0
2.194775 -2.045229 0.000000 2 0
2.311540 -1.912272 0.000000 3 0
2.420262 -1.772662 0.000000 4 0
2.520565 -1.626885 0.000000 5 0
2.612098 -1.475447 0.000000 6 0
2.138283 -2.104221 0.000000 7 0
2.258624 -1.974492 0.000000 8 0
2.371107 -1.837894 0.000000 9 0
2.475340 -1.694901 0.000000 10 0
2.570962 -1.546012 0.000000 11 0
2.657640 -1.391744 0.000000 12 0
2.735071 -1.232634 0.000000 13 0
2.320194 -1.901763 0.000000 14 0
2.428281 -1.761661 0.000000 15 0
2.527921 -1.615430 0.000000 16 0
2.618766 -1.463579 0.000000 17 0
2.700500 -1.306636 0.000000 18 0
2.772839 -1.145147 0.000000 19 0
2.835531 -0.979674 0.000000 20 0
2.483006 -1.683651 0.000000 21 0
2.577951 -1.534329 0.000000 22 0
2.663928 -1.379670 0.000000 23 0
2.740636 -1.220210 0.000000 24 0
2.807810 -1.056505 0.000000 25 0
2.865215 -0.889125 0.000000 26 0
2.912652 -0.718651 0.000000 27 0
2.625381 -1.451680 0.000000 28 0
2.706402 -1.294368 0.000000 29 0
2.778007 -1.132553 0.000000 30 0
2.839948 -0.966797 0.000000 31 0
2.892008 -0.797678 0.000000 32 0
2.934007 -0.625784 0.000000 33 0
2.965798 -0.451712 0.000000 34 0
2.746145 -1.207761 0.000000 35 0
2.812575 -1.043753 0.000000 36 0
2.869220 -0.876114 0.000000 37 0
2.915883 -0.705426 0.000000 38 0
2.952401 -0.532285 0.000000 39 0
2.978648 -0.357291 0.000000 40 0
2.994532 -0.181055 0.000000 41 0
2.844306 -0.953900 0.000000 42 0
2.895598 -0.784546 0.000000 43 0
2.936816 -0.612463 0.000000 44 0
2.967817 -0.438249 0.000000 45 0
2.988493 -0.262510 0.000000 46 0
2.998771 -0.085858 0.000000 47 0
2.998617 0.091092 0.000000 48 0
2.238521 -1.997254 0.000000 49 1
2.352381 -1.861802 0.000000 50 1
2.458057 -1.719871 0.000000 51 1
2.555181 -1.571958 0.000000 52 1
2.643415 -1.418575 0.000000 53 1
2.722453 -1.260257 0.000000 54 1
2.792020 -1.097555 0.000000 55 1
2.410324 -1.786152 0.000000 56 1
2.511439 -1.640937 0.000000 57 1
2.603817 -1.490013 0.000000 58 1
2.687135 -1.333906 0.000000 59 1
2.761105 -1.173157 0.000000 60 1
2.825469 -1.008328 0.000000 61 1
2.880003 -0.839990 0.000000 62 1
2.562288 -1.560347 0.000000 63 1
2.649825 -1.406565 0.000000 64 1
2.728144 -1.247890 0.000000 65 1
2.796971 -1.084874 0.000000 66 1
2.856068 -0.918083 0.000000 67 1
2.905228 -0.748098 0.000000 68 1
2.944280 -0.575511 0.000000 69 1
2.693161 -1.321698 0.000000 70 1
2.766400 -1.160616 0.000000 71 1
2.830016 -0.995496 0.000000 72 1
2.883785 -0.826912 0.000000 73 1
2.927522 -0.655452 0.000000 74 1
2.961073 -0.481711 0.000000 75 1
2.984323 -0.306294 0.000000 76 1
2.801866 -1.072170 0.000000 77 1
2.860205 -0.905113 0.000000 78 1
2.908593 -0.734907 0.000000 79 1
2.946862 -0.562144 0.000000 80 1
2.974878 -0.387425 0.000000 81 1
2.992545 -0.211359 0.000000 82 1
2.999801 -0.034557 0.000000 83 1
2.887508 -0.813817 0.000000 84 1
2.930466 -0.642160 0.000000 85 1
2.963229 -0.468269 0.000000 86 1
2.985682 -0.292749 0.000000 87 1
2.997748 -0.116210 0.000000 88 1
2.999385 0.060733 0.000000 89 1
2.990587 0.237465 0.000000 90 1
2.949382 -0.548766 0.000000 91 1
2.976606 -0.373922 0.000000 92 1
2.993474 -0.197777 0.000000 93 1
2.999927 -0.020944 0.000000 94 1
2.995943 0.155962 0.000000 95 1
2.981536 0.332325 0.000000 96 1
2.956757 0.507532 0.000000 97 1
2.494700 -1.666275 0.000000 98 2
2.588600 -1.516294 0.000000 99 2
2.673495 -1.361038 0.000000 100 2
2.749088 -1.201047 0.000000 101 2
2.815117 -1.036877 0.000000 102 2
2.871352 -0.869100 0.000000 103 2
2.917598 -0.698299 0.000000 104 2
2.635451 -1.433317 0.000000 105 2
2.715372 -1.275442 0.000000 106 2
2.785846 -1.113131 0.000000 107 2
2.846628 -0.946947 0.000000 108 2
2.897506 -0.777469 0.000000 109 2
2.938304 -0.605285 0.000000 110 2
2.968879 -0.430996 0.000000 111 2
2.754510 -1.188560 0.000000 112 2
2.819794 -1.024092 0.000000 113 2
2.875267 -0.856061 0.000000 114 2
2.920737 -0.685053 0.000000 115 2
2.956045 -0.511660 0.000000 116 2
2.981070 -0.336488 0.000000 117 2
2.995723 -0.160145 0.000000 118 2
2.850896 -0.934020 0.000000 119 2
2.901004 -0.764312 0.000000 120 2
2.941020 -0.591945 0.000000 121 2
2.970804 -0.417519 0.000000 122 2
2.990252 -0.241641 0.000000 123 2
2.999297 -0.064921 0.000000 124 2
2.997908 0.112024 0.000000 125 2
2.923815 -0.671792 0.000000 126 2
2.958337 -0.498241 0.000000 127 2
2.982566 -0.322957 0.000000 128 2
2.996418 -0.146549 0.000000 129 2
2.999846 0.030368 0.000000 130 2
2.992838 0.207180 0.000000 131 2
2.975416 0.383271 0.000000 132 2
2.972668 -0.404034 0.000000 133 2
2.991318 -0.228069 0.000000 134 2
2.999561 -0.051310 0.000000 135 2
2.997368 0.125627 0.000000 136 2
2.984748 0.302127 0.000000 137 2
2.961743 0.477576 0.000000 138 2
2.928434 0.651363 0.000000 139 2
2.997053 -0.132951 0.000000 140 2
2.999678 0.043981 0.000000 141 2
2.991867 0.220759 0.000000 142 2
2.973647 0.396769 0.000000 143 2
2.945081 0.571399 0.000000 144 2
2.906270 0.744041 0.000000 145 2
2.857347 0.914094 0.000000 146 2
2.702322 -1.302864 0.000000 147 3
2.774436 -1.141274 0.000000 148 3
2.836896 -0.975714 0.000000 149 3
2.889488 -0.806759 0.000000 150 3
2.932026 -0.634998 0.000000 151 3
2.964364 -0.461027 0.000000 152 3
2.986389 -0.285452 0.000000 153 3
2.809282 -1.052584 0.000000 154 3
2.866454 -0.885123 0.000000 155 3
2.913652 -0.714583 0.000000 156 3
2.950714 -0.541557 0.000000 157 3
2.977511 -0.366647 0.000000 158 3
2.993948 -0.190462 0.000000 159 3
2.999969 -0.013614 0.000000 160 3
2.893119 -0.793639 0.000000 161 3
2.934878 -0.621686 0.000000 162 3
2.966426 -0.447571 0.000000 163 3
2.987653 -0.271898 0.000000 164 3
2.998487 -0.095279 0.000000 165 3
2.998888 0.081671 0.000000 166 3
2.988856 0.258337 0.000000 167 3
2.953142 -0.528162 0.000000 168 3
2.979144 -0.353132 0.000000 169 3
2.994781 -0.176874 0.000000 170 3
3.000000 0.000000 0.000000 171 3
2.994781 0.176874 0.000000 172 3
2.979144 0.353132 0.000000 173 3
2.953142 0.528162 0.000000 174 3
2.988856 -0.258337 0.000000 175 3
2.998888 -0.081671 0.000000 176 3
2.998487 0.095279 0.000000 177 3
2.987653 0.271898 0.000000 178 3
2.966426 0.447571 0.000000 179 3
2.934878 0.621686 0.000000 180 3
2.893119 0.793639 0.000000 181 3
2.999969 0.013614 0.000000 182 3
2.993948 0.190462 0.000000 183 3
2.977511 0.366647 0.000000 184 3
2.950714 0.541557 0.000000 185 3
2.913652 0.714583 0.000000 186 3
2.866454 0.885123 0.000000 187 3
2.809282 1.052584 0.000000 188 3
2.986389 0.285452 0.000000 189 3
2.964364 0.461027 0.000000 190 3
2.932026 0.634998 0.000000 191 3
2.889488 0.806759 0.000000 192 3
2.836896 0.975714 0.000000 193 3
2.774436 1.141274 0.000000 194 3
2.702322 1.302864 0.000000 195 3
2.857347 -0.914094 0.000000 196 4
2.906270 -0.744041 0.000000 197 4
2.945081 -0.571399 0.000000 198 4
2.973647 -0.396769 0.000000 199 4
2.991867 -0.220759 0.000000 200 4
2.999678 -0.043981 0.000000 201 4
2.997053 0.132951 0.000000 202 4
2.928434 -0.651363 0.000000 203 4
2.961743 -0.477576 0.000000 204 4
2.984748 -0.302127 0.000000 205 4
2.997368 -0.125627 0.000000 206 4
2.999561 0.051310 0.000000 207 4
2.991318 0.228069 0.000000 208 4
2.972668 0.404034 0.000000 209 4
2.975416 -0.383271 0.000000 210 4
2.992838 -0.207180 0.000000 211 4
2.999846 -0.030368 0.000000 212 4
2.996418 0.146549 0.000000 213 4
2.982566 0.322957 0.000000 214 4
2.958337 0.498241 0.000000 215 4
2.923815 0.671792 0.000000 216 4
2.997908 -0.112024 0.000000 217 4
2.999297 0.064921 0.000000 218 4
2.990252 0.241641 0.000000 219 4
2.970804 0.417519 0.000000 220 4
2.941020 0.591945 0.000000 221 4
2.901004 0.764312 0.000000 222 4
2.850896 0.934020 0.000000 223 4
2.995723 0.160145 0.000000 224 4
2.981070 0.336488 0.000000 225 4
2.956045 0.511660 0.000000 226 4
2.920737 0.685053 0.000000 227 4
2.875267 0.856061 0.000000 228 4
2.819794 1.024092 0.000000 229 4
2.754510 1.188560 0.000000 230 4
2.968879 0.430996 0.000000 231 4
2.938304 0.605285 0.000000 232 4
2.897506 0.777469 0.000000 233 4
2.846628 0.946947 0.000000 234 4
2.785846 1.113131 0.000000 235 4
2.715372 1.275442 0.000000 236 4
2.635451 1.433317 0.000000 237 4
2.917598 0.698299 0.000000 238 4
2.871352 0.869100 0.000000 239 4
2.815117 1.036877 0.000000 240 4
2.749088 1.201047 0.000000 241 4
2.673495 1.361038 0.000000 242 4
2.588600 1.516294 0.000000 243 4
2.494700 1.666275 0.000000 244 4
2.956757 -0.507532 0.000000 245 5
2.981536 -0.332325 0.000000 246 5
2.995943 -0.155962 0.000000 247 5
2.999927 0.020944 0.000000 248 5
2.993474 0.197777 0.000000 249 5
2.976606 0.373922 0.000000 250 5
2.949382 0.548766 0.000000 251 5
2.990587 -0.237465 0.000000 252 5
2.999385 -0.060733 0.000000 253 5
2.997748 0.116210 0.000000 254 5
2.985682 0.292749 0.000000 255 5
2.963229 0.468269 0.000000 256 5
2.930466 0.642160 0.000000 257 5
2.887508 0.813817 0.000000 258 5
2.999801 0.034557 0.000000 259 5
2.992545 0.211359 0.000000 260 5
2.974878 0.387425 0.000000 261 5
2.946862 0.562144 0.000000 262 5
2.908593 0.734907 0.000000 263 5
2.860205 0.905113 0.000000 264 5
2.801866 1.072170 0.000000 265 5
2.984323 0.306294 0.000000 266 5
2.961073 0.481711 0.000000 267 5
2.927522 0.655452 0.000000 268 5
2.883785 0.826912 0.000000 269 5
2.830016 0.995496 0.000000 270 5
2.766400 1.160616 0.000000 271 5
2.693161 1.321698 0.000000 272 5
2.944280 0.575511 0.000000 273 5
2.905228 0.748098 0.000000 274 5
2.856068 0.918083 0.000000 275 5
2.796971 1.084874 0.000000 276 5
2.728144 1.247890 0.000000 277 5
2.649825 1.406565 0.000000 278 5
2.562288 1.560347 0.000000 279 5
2.880003 0.839990 0.000000 280 5
2.825469 1.008328 0.000000 281 5
2.761105 1.173157 0.000000 282 5
2.687135 1.333906 0.000000 283 5
2.603817 1.490013 0.000000 284 5
2.511439 1.640937 0.000000 285 5
2.410324 1.786152 0.000000 286 5
2.792020 1.097555 0.000000 287 5
2.722453 1.260257 0.000000 288 5
2.643415 1.418575 0.000000 289 5
2.555181 1.571958 0.000000 290 5
2.458057 1.719871 0.000000 291 5
2.352381 1.861802 0.000000 292 5
2.238521 1.997254 0.000000 293 5
2.998617 -0.091092 0.000000 294 6
2.998771 0.085858 0.000000 295 6
2.988493 0.262510 0.000000 296 6
2.967817 0.438249 0.000000 297 6
2.936816 0.612463 0.000000 298 6
2.895598 0.784546 0.000000 299 6
2.844306 0.953900 0.000000 300 6
2.994532 0.181055 0.000000 301 6
2.978648 0.357291 0.000000 302 6
2.952401 0.532285 0.000000 303 6
2.915883 0.705426 0.000000 304 6
2.869220 0.876114 0.000000 305 6
2.812575 1.043753 0.000000 306 6
2.746145 1.207761 0.000000 307 6
2.965798 0.451712 0.000000 308 6
2.934007 0.625784 0.000000 309 6
2.892008 0.797678 0.000000 310 6
2.839948 0.966797 0.000000 311 6
2.778007 1.132553 0.000000 312 6
2.706402 1.294368 0.000000 313 6
2.625381 1.451680 0.000000 314 6
2.912652 0.718651 0.000000 315 6
2.865215 0.889125 0.000000 316 6
2.807810 1.056505 0.000000 317 6
2.740636 1.220210 0.000000 318 6
2.663928 1.379670 0.000000 319 6
2.577951 1.534329 0.000000 320 6
2.483006 1.683651 0.000000 321 6
2.835531 0.979674 0.000000 322 6
2.772839 1.145147 0.000000 323 6
2.700500 1.306636 0.000000 324 6
2.618766 1.463579 0.000000 325 6
2.527921 1.615430 0.000000 326 6
2.428281 1.761661 0.000000 327 6
2.320194 1.901763 0.000000 328 6
2.735071 1.232634 0.000000 329 6
2.657640 1.391744 0.000000 330 6
2.570962 1.546012 0.000000 331 6
2.475340 1.694901 0.000000 332 6
2.371107 1.837894 0.000000 333 6
2.258624 1.974492 0.000000 334 6
2.138283 2.104221 0.000000 335 6
2.612098 1.475447 0.000000 336 6
2.520565 1.626885 0.000000 337 6
2.420262 1.772662 0.000000 338 6
2.311540 1.912272 0.000000 339 6
2.194775 2.045229 0.000000 340 6
2.070375 2.171071 0.000000 341 6
1.938772 2.289359 0.000000 342 6
