ply
format ascii 1.0
element vertex 707
property float x
property float y
property float z
property int group_id
end_header
0.000000 0.000000 0.000000 0
0.010000 -0.000042 0.000000 0
0.019999 -0.000168 0.000000 0
0.029998 -0.000377 0.000000 0
0.039994 -0.000670 0.000000 0
0.049989 -0.001047 0.000000 0
0.059981 -0.001508 0.000000 0
0.069970 -0.002052 0.000000 0
0.079955 -0.002680 0.000000 0
0.089936 -0.003392 0.000000 0
0.099912 -0.004188 0.000000 0
0.109883 -0.005067 0.000000 0
0.119848 -0.006029 0.000000 0
0.129807 -0.007076 0.000000 0
0.139759 -0.008205 0.000000 0
0.149704 -0.009419 0.000000 0
0.159641 -0.010715 0.000000 0
0.169569 -0.012095 0.000000 0
0.179489 -0.013559 0.000000 0
0.189399 -0.015106 0.000000 0
0.199299 -0.016736 0.000000 0
0.209188 -0.018449 0.000000 0
0.219067 -0.020245 0.000000 0
0.228933 -0.022124 0.000000 0
0.238788 -0.024087 0.000000 0
0.248630 -0.026132 0.000000 0
0.258460 -0.028260 0.000000 0
0.268275 -0.030471 0.000000 0
0.278076 -0.032765 0.000000 0
0.287863 -0.035141 0.000000 0
0.297634 -0.037600 0.000000 0
0.307390 -0.040141 0.000000 0
0.317130 -0.042765 0.000000 0
0.326852 -0.045471 0.000000 0
0.336558 -0.048259 0.000000 0
0.346245 -0.051129 0.000000 0
0.355915 -0.054081 0.000000 0
0.365565 -0.057115 0.000000 0
0.375196 -0.060231 0.000000 0
0.384808 -0.063428 0.000000 0
0.394398 -0.066707 0.000000 0
0.403968 -0.070068 0.000000 0
0.413517 -0.073510 0.000000 0
0.423044 -0.077033 0.000000 0
0.432548 -0.080637 0.000000 0
0.442029 -0.084322 0.000000 0
0.451487 -0.088087 0.000000 0
0.460921 -0.091934 0.000000 0
0.470330 -0.095861 0.000000 0
0.479715 -0.099868 0.000000 0
0.489074 -0.103956 0.000000 0
0.498407 -0.108124 0.000000 0
0.507713 -0.112371 0.000000 0
0.516993 -0.116699 0.000000 0
0.526245 -0.121106 0.000000 0
0.535468 -0.125593 0.000000 0
0.544664 -0.130159 0.000000 0
0.553830 -0.134804 0.000000 0
0.562967 -0.139529 0.000000 0
0.572074 -0.144332 0.000000 0
0.581150 -0.149214 0.000000 0
0.590195 -0.154174 0.000000 0
0.599209 -0.159213 0.000000 0
0.608190 -0.164330 0.000000 0
0.617140 -0.169525 0.000000 0
0.626056 -0.174798 0.000000 0
0.634938 -0.180148 0.000000 0
0.643787 -0.185576 0.000000 0
0.652601 -0.191081 0.000000 0
0.661380 -0.196663 0.000000 0
0.670124 -0.202322 0.000000 0
0.678831 -0.208058 0.000000 0
0.687502 -0.213870 0.000000 0
0.696137 -0.219758 0.000000 0
0.704734 -0.225723 0.000000 0
0.713292 -0.231763 0.000000 0
0.721813 -0.237879 0.000000 0
0.730294 -0.244070 0.000000 0
0.738737 -0.250336 0.000000 0
0.747139 -0.256677 0.000000 0
0.755501 -0.263093 0.000000 0
0.763822 -0.269584 0.000000 0
0.772102 -0.276149 0.000000 0
0.780340 -0.282787 0.000000 0
0.788536 -0.289500 0.000000 0
0.796690 -0.296286 0.000000 0
0.804800 -0.303146 0.000000 0
0.812866 -0.310078 0.000000 0
0.820888 -0.317084 0.000000 0
0.828866 -0.324162 0.000000 0
0.836799 -0.331312 0.000000 0
0.844686 -0.338535 0.000000 0
0.852527 -0.345829 0.000000 0
0.860322 -0.353195 0.000000 0
0.868070 -0.360632 0.000000 0
0.875770 -0.368140 0.000000 0
0.883423 -0.375719 0.000000 0
0.891027 -0.383368 0.000000 0
0.898582 -0.391088 0.000000 0
0.906089 -0.398877 0.000000 0
0.913545 -0.406737 0.000000 0
0.000000 0.000000 0.000000 1
0.010000 -0.000028 0.000000 1
0.020000 -0.000112 0.000000 1
0.029999 -0.000251 0.000000 1
0.039998 -0.000447 0.000000 1
0.049995 -0.000698 0.000000 1
0.059992 -0.001005 0.000000 1
0.069987 -0.001368 0.000000 1
0.079980 -0.001787 0.000000 1
0.089972 -0.002262 0.000000 1
0.099961 -0.002792 0.000000 1
0.109948 -0.003378 0.000000 1
0.119933 -0.004020 0.000000 1
0.129914 -0.004718 0.000000 1
0.139893 -0.005472 0.000000 1
0.149868 -0.006281 0.000000 1
0.159840 -0.007146 0.000000 1
0.169808 -0.008067 0.000000 1
0.179773 -0.009044 0.000000 1
0.189733 -0.010076 0.000000 1
0.199688 -0.011164 0.000000 1
0.209639 -0.012308 0.000000 1
0.219585 -0.013507 0.000000 1
0.229526 -0.014762 0.000000 1
0.239461 -0.016073 0.000000 1
0.249391 -0.017439 0.000000 1
0.259315 -0.018861 0.000000 1
0.269233 -0.020338 0.000000 1
0.279145 -0.021871 0.000000 1
0.289050 -0.023459 0.000000 1
0.298948 -0.025103 0.000000 1
0.308839 -0.026803 0.000000 1
0.318723 -0.028557 0.000000 1
0.328600 -0.030368 0.000000 1
0.338469 -0.032233 0.000000 1
0.348330 -0.034154 0.000000 1
0.358182 -0.036130 0.000000 1
0.368027 -0.038162 0.000000 1
0.377862 -0.040248 0.000000 1
0.387689 -0.042390 0.000000 1
0.397507 -0.044588 0.000000 1
0.407316 -0.046840 0.000000 1
0.417115 -0.049147 0.000000 1
0.426904 -0.051510 0.000000 1
0.436683 -0.053927 0.000000 1
0.446452 -0.056400 0.000000 1
0.456210 -0.058927 0.000000 1
0.465958 -0.061510 0.000000 1
0.475694 -0.064147 0.000000 1
0.485420 -0.066840 0.000000 1
0.495134 -0.069587 0.000000 1
0.504837 -0.072388 0.000000 1
0.514527 -0.075245 0.000000 1
0.524206 -0.078156 0.000000 1
0.533872 -0.081122 0.000000 1
0.543526 -0.084142 0.000000 1
0.553166 -0.087217 0.000000 1
0.562794 -0.090347 0.000000 1
0.572409 -0.093530 0.000000 1
0.582010 -0.096769 0.000000 1
0.591598 -0.100061 0.000000 1
0.601171 -0.103408 0.000000 1
0.610731 -0.106809 0.000000 1
0.620276 -0.110265 0.000000 1
0.629806 -0.113774 0.000000 1
0.639321 -0.117337 0.000000 1
0.648822 -0.120955 0.000000 1
0.658307 -0.124626 0.000000 1
0.667777 -0.128352 0.000000 1
0.677231 -0.132131 0.000000 1
0.686669 -0.135964 0.000000 1
0.696090 -0.139851 0.000000 1
0.705496 -0.143791 0.000000 1
0.714884 -0.147785 0.000000 1
0.724256 -0.151833 0.000000 1
0.733611 -0.155934 0.000000 1
0.742948 -0.160088 0.000000 1
0.752268 -0.164296 0.000000 1
0.761570 -0.168557 0.000000 1
0.770854 -0.172871 0.000000 1
0.780119 -0.177239 0.000000 1
0.789367 -0.181659 0.000000 1
0.798595 -0.186133 0.000000 1
0.807805 -0.190659 0.000000 1
0.816996 -0.195239 0.000000 1
0.826167 -0.199871 0.000000 1
0.835318 -0.204556 0.000000 1
0.844450 -0.209293 0.000000 1
0.853562 -0.214083 0.000000 1
0.862654 -0.218926 0.000000 1
0.871725 -0.223821 0.000000 1
0.880775 -0.228768 0.000000 1
0.889805 -0.233768 0.000000 1
0.898813 -0.238820 0.000000 1
0.907800 -0.243924 0.000000 1
0.916766 -0.249080 0.000000 1
0.925709 -0.254288 0.000000 1
0.934631 -0.259547 0.000000 1
0.943530 -0.264859 0.000000 1
0.952407 -0.270222 0.000000 1
0.961262 -0.275637 0.000000 1
0.000000 0.000000 0.000000 2
0.010000 -0.000014 0.000000 2
0.020000 -0.000056 0.000000 2
0.030000 -0.000126 0.000000 2
0.039999 -0.000223 0.000000 2
0.049999 -0.000349 0.000000 2
0.059998 -0.000503 0.000000 2
0.069997 -0.000684 0.000000 2
0.079995 -0.000894 0.000000 2
0.089993 -0.001131 0.000000 2
0.099990 -0.001396 0.000000 2
0.109987 -0.001689 0.000000 2
0.119983 -0.002011 0.000000 2
0.129979 -0.002360 0.000000 2
0.139973 -0.002737 0.000000 2
0.149967 -0.003141 0.000000 2
0.159960 -0.003574 0.000000 2
0.169952 -0.004035 0.000000 2
0.179943 -0.004523 0.000000 2
0.189933 -0.005040 0.000000 2
0.199922 -0.005584 0.000000 2
0.209910 -0.006157 0.000000 2
0.219896 -0.006757 0.000000 2
0.229881 -0.007385 0.000000 2
0.239865 -0.008041 0.000000 2
0.249848 -0.008725 0.000000 2
0.259829 -0.009437 0.000000 2
0.269808 -0.010176 0.000000 2
0.279786 -0.010944 0.000000 2
0.289762 -0.011739 0.000000 2
0.299737 -0.012563 0.000000 2
0.309710 -0.013414 0.000000 2
0.319681 -0.014293 0.000000 2
0.329650 -0.015200 0.000000 2
0.339617 -0.016135 0.000000 2
0.349582 -0.017097 0.000000 2
0.359545 -0.018088 0.000000 2
0.369506 -0.019106 0.000000 2
0.379465 -0.020153 0.000000 2
0.389422 -0.021227 0.000000 2
0.399376 -0.022329 0.000000 2
0.409328 -0.023458 0.000000 2
0.419278 -0.024616 0.000000 2
0.429225 -0.025801 0.000000 2
0.439170 -0.027015 0.000000 2
0.449112 -0.028256 0.000000 2
0.459052 -0.029525 0.000000 2
0.468988 -0.030821 0.000000 2
0.478922 -0.032146 0.000000 2
0.488854 -0.033498 0.000000 2
0.498782 -0.034878 0.000000 2
0.508707 -0.036286 0.000000 2
0.518630 -0.037722 0.000000 2
0.528549 -0.039185 0.000000 2
0.538466 -0.040676 0.000000 2
0.548379 -0.042195 0.000000 2
0.558289 -0.043742 0.000000 2
0.568196 -0.045317 0.000000 2
0.578099 -0.046919 0.000000 2
0.587999 -0.048549 0.000000 2
0.597896 -0.050207 0.000000 2
0.607789 -0.051892 0.000000 2
0.617678 -0.053605 0.000000 2
0.627564 -0.055346 0.000000 2
0.637446 -0.057115 0.000000 2
0.647325 -0.058911 0.000000 2
0.657200 -0.060735 0.000000 2
0.667070 -0.062587 0.000000 2
0.676937 -0.064466 0.000000 2
0.686800 -0.066373 0.000000 2
0.696659 -0.068308 0.000000 2
0.706514 -0.070270 0.000000 2
0.716365 -0.072260 0.000000 2
0.726211 -0.074278 0.000000 2
0.736053 -0.076323 0.000000 2
0.745891 -0.078396 0.000000 2
0.755725 -0.080497 0.000000 2
0.765554 -0.082625 0.000000 2
0.775379 -0.084781 0.000000 2
0.785199 -0.086964 0.000000 2
0.795014 -0.089175 0.000000 2
0.804825 -0.091414 0.000000 2
0.814631 -0.093680 0.000000 2
0.824433 -0.095973 0.000000 2
0.834229 -0.098295 0.000000 2
0.844021 -0.100643 0.000000 2
0.853807 -0.103020 0.000000 2
0.863589 -0.105423 0.000000 2
0.873366 -0.107855 0.000000 2
0.883137 -0.110314 0.000000 2
0.892903 -0.112800 0.000000 2
0.902664 -0.115314 0.000000 2
0.912420 -0.117855 0.000000 2
0.922170 -0.120424 0.000000 2
0.931915 -0.123020 0.000000 2
0.941655 -0.125644 0.000000 2
0.951389 -0.128295 0.000000 2
0.961117 -0.130973 0.000000 2
0.970840 -0.133679 0.000000 2
0.980557 -0.136412 0.000000 2
0.990268 -0.139173 0.000000 2
0.000000 0.000000 0.000000 3
0.010000 0.000000 0.000000 3
0.020000 0.000000 0.000000 3
0.030000 0.000000 0.000000 3
0.040000 0.000000 0.000000 3
0.050000 0.000000 0.000000 3
0.060000 0.000000 0.000000 3
0.070000 0.000000 0.000000 3
0.080000 0.000000 0.000000 3
0.090000 0.000000 0.000000 3
0.100000 0.000000 0.000000 3
0.110000 0.000000 0.000000 3
0.120000 0.000000 0.000000 3
0.130000 0.000000 0.000000 3
0.140000 0.000000 0.000000 3
0.150000 0.000000 0.000000 3
0.160000 0.000000 0.000000 3
0.170000 0.000000 0.000000 3
0.180000 0.000000 0.000000 3
0.190000 0.000000 0.000000 3
0.200000 0.000000 0.000000 3
0.210000 0.000000 0.000000 3
0.220000 0.000000 0.000000 3
0.230000 0.000000 0.000000 3
0.240000 0.000000 0.000000 3
0.250000 0.000000 0.000000 3
0.260000 0.000000 0.000000 3
0.270000 0.000000 0.000000 3
0.280000 0.000000 0.000000 3
0.290000 0.000000 0.000000 3
0.300000 0.000000 0.000000 3
0.310000 0.000000 0.000000 3
0.320000 0.000000 0.000000 3
0.330000 0.000000 0.000000 3
0.340000 0.000000 0.000000 3
0.350000 0.000000 0.000000 3
0.360000 0.000000 0.000000 3
0.370000 0.000000 0.000000 3
0.380000 0.000000 0.000000 3
0.390000 0.000000 0.000000 3
0.400000 0.000000 0.000000 3
0.410000 0.000000 0.000000 3
0.420000 0.000000 0.000000 3
0.430000 0.000000 0.000000 3
0.440000 0.000000 0.000000 3
0.450000 0.000000 0.000000 3
0.460000 0.000000 0.000000 3
0.470000 0.000000 0.000000 3
0.480000 0.000000 0.000000 3
0.490000 0.000000 0.000000 3
0.500000 0.000000 0.000000 3
0.510000 0.000000 0.000000 3
0.520000 0.000000 0.000000 3
0.530000 0.000000 0.000000 3
0.540000 0.000000 0.000000 3
0.550000 0.000000 0.000000 3
0.560000 0.000000 0.000000 3
0.570000 0.000000 0.000000 3
0.580000 0.000000 0.000000 3
0.590000 0.000000 0.000000 3
0.600000 0.000000 0.000000 3
0.610000 0.000000 0.000000 3
0.620000 0.000000 0.000000 3
0.630000 0.000000 0.000000 3
0.640000 0.000000 0.000000 3
0.650000 0.000000 0.000000 3
0.660000 0.000000 0.000000 3
0.670000 0.000000 0.000000 3
0.680000 0.000000 0.000000 3
0.690000 0.000000 0.000000 3
0.700000 0.000000 0.000000 3
0.710000 0.000000 0.000000 3
0.720000 0.000000 0.000000 3
0.730000 0.000000 0.000000 3
0.740000 0.000000 0.000000 3
0.750000 0.000000 0.000000 3
0.760000 0.000000 0.000000 3
0.770000 0.000000 0.000000 3
0.780000 0.000000 0.000000 3
0.790000 0.000000 0.000000 3
0.800000 0.000000 0.000000 3
0.810000 0.000000 0.000000 3
0.820000 0.000000 0.000000 3
0.830000 0.000000 0.000000 3
0.840000 0.000000 0.000000 3
0.850000 0.000000 0.000000 3
0.860000 0.000000 0.000000 3
0.870000 0.000000 0.000000 3
0.880000 0.000000 0.000000 3
0.890000 0.000000 0.000000 3
0.900000 0.000000 0.000000 3
0.910000 0.000000 0.000000 3
0.920000 0.000000 0.000000 3
0.930000 0.000000 0.000000 3
0.940000 0.000000 0.000000 3
0.950000 0.000000 0.000000 3
0.960000 0.000000 0.000000 3
0.970000 0.000000 0.000000 3
0.980000 0.000000 0.000000 3
0.990000 0.000000 0.000000 3
1.000000 0.000000 0.000000 3
0.000000 0.000000 0.000000 4
0.010000 0.000014 0.000000 4
0.020000 0.000056 0.000000 4
0.030000 0.000126 0.000000 4
0.039999 0.000223 0.000000 4
0.049999 0.000349 0.000000 4
0.059998 0.000503 0.000000 4
0.069997 0.000684 0.000000 4
0.079995 0.000894 0.000000 4
0.089993 0.001131 0.000000 4
0.099990 0.001396 0.000000 4
0.109987 0.001689 0.000000 4
0.119983 0.002011 0.000000 4
0.129979 0.002360 0.000000 4
0.139973 0.002737 0.000000 4
0.149967 0.003141 0.000000 4
0.159960 0.003574 0.000000 4
0.169952 0.004035 0.000000 4
0.179943 0.004523 0.000000 4
0.189933 0.005040 0.000000 4
0.199922 0.005584 0.000000 4
0.209910 0.006157 0.000000 4
0.219896 0.006757 0.000000 4
0.229881 0.007385 0.000000 4
0.239865 0.008041 0.000000 4
0.249848 0.008725 0.000000 4
0.259829 0.009437 0.000000 4
0.269808 0.010176 0.000000 4
0.279786 0.010944 0.000000 4
0.289762 0.011739 0.000000 4
0.299737 0.012563 0.000000 4
0.309710 0.013414 0.000000 4
0.319681 0.014293 0.000000 4
0.329650 0.015200 0.000000 4
0.339617 0.016135 0.000000 4
0.349582 0.017097 0.000000 4
0.359545 0.018088 0.000000 4
0.369506 0.019106 0.000000 4
0.379465 0.020153 0.000000 4
0.389422 0.021227 0.000000 4
0.399376 0.022329 0.000000 4
0.409328 0.023458 0.000000 4
0.419278 0.024616 0.000000 4
0.429225 0.025801 0.000000 4
0.439170 0.027015 0.000000 4
0.449112 0.028256 0.000000 4
0.459052 0.029525 0.000000 4
0.468988 0.030821 0.000000 4
0.478922 0.032146 0.000000 4
0.488854 0.033498 0.000000 4
0.498782 0.034878 0.000000 4
0.508707 0.036286 0.000000 4
0.518630 0.037722 0.000000 4
0.528549 0.039185 0.000000 4
0.538466 0.040676 0.000000 4
0.548379 0.042195 0.000000 4
0.558289 0.043742 0.000000 4
0.568196 0.045317 0.000000 4
0.578099 0.046919 0.000000 4
0.587999 0.048549 0.000000 4
0.597896 0.050207 0.000000 4
0.607789 0.051892 0.000000 4
0.617678 0.053605 0.000000 4
0.627564 0.055346 0.000000 4
0.637446 0.057115 0.000000 4
0.647325 0.058911 0.000000 4
0.657200 0.060735 0.000000 4
0.667070 0.062587 0.000000 4
0.676937 0.064466 0.000000 4
0.686800 0.066373 0.000000 4
0.696659 0.068308 0.000000 4
0.706514 0.070270 0.000000 4
0.716365 0.072260 0.000000 4
0.726211 0.074278 0.000000 4
0.736053 0.076323 0.000000 4
0.745891 0.078396 0.000000 4
0.755725 0.080497 0.000000 4
0.765554 0.082625 0.000000 4
0.775379 0.084781 0.000000 4
0.785199 0.086964 0.000000 4
0.795014 0.089175 0.000000 4
0.804825 0.091414 0.000000 4
0.814631 0.093680 0.000000 4
0.824433 0.095973 0.000000 4
0.834229 0.098295 0.000000 4
0.844021 0.100643 0.000000 4
0.853807 0.103020 0.000000 4
0.863589 0.105423 0.000000 4
0.873366 0.107855 0.000000 4
0.883137 0.110314 0.000000 4
0.892903 0.112800 0.000000 4
0.902664 0.115314 0.000000 4
0.912420 0.117855 0.000000 4
0.922170 0.120424 0.000000 4
0.931915 0.123020 0.000000 4
0.941655 0.125644 0.000000 4
0.951389 0.128295 0.000000 4
0.961117 0.130973 0.000000 4
0.970840 0.133679 0.000000 4
0.980557 0.136412 0.000000 4
0.990268 0.139173 0.000000 4
0.000000 0.000000 0.000000 5
0.010000 0.000028 0.000000 5
0.020000 0.000112 0.000000 5
0.029999 0.000251 0.000000 5
0.039998 0.000447 0.000000 5
0.049995 0.000698 0.000000 5
0.059992 0.001005 0.000000 5
0.069987 0.001368 0.000000 5
0.079980 0.001787 0.000000 5
0.089972 0.002262 0.000000 5
0.099961 0.002792 0.000000 5
0.109948 0.003378 0.000000 5
0.119933 0.004020 0.000000 5
0.129914 0.004718 0.000000 5
0.139893 0.005472 0.000000 5
0.149868 0.006281 0.000000 5
0.159840 0.007146 0.000000 5
0.169808 0.008067 0.000000 5
0.179773 0.009044 0.000000 5
0.189733 0.010076 0.000000 5
0.199688 0.011164 0.000000 5
0.209639 0.012308 0.000000 5
0.219585 0.013507 0.000000 5
0.229526 0.014762 0.000000 5
0.239461 0.016073 0.000000 5
0.249391 0.017439 0.000000 5
0.259315 0.018861 0.000000 5
0.269233 0.020338 0.000000 5
0.279145 0.021871 0.000000 5
0.289050 0.023459 0.000000 5
0.298948 0.025103 0.000000 5
0.308839 0.026803 0.000000 5
0.318723 0.028557 0.000000 5
0.328600 0.030368 0.000000 5
0.338469 0.032233 0.000000 5
0.348330 0.034154 0.000000 5
0.358182 0.036130 0.000000 5
0.368027 0.038162 0.000000 5
0.377862 0.040248 0.000000 5
0.387689 0.042390 0.000000 5
0.397507 0.044588 0.000000 5
0.407316 0.046840 0.000000 5
0.417115 0.049147 0.000000 5
0.426904 0.051510 0.000000 5
0.436683 0.053927 0.000000 5
0.446452 0.056400 0.000000 5
0.456210 0.058927 0.000000 5
0.465958 0.061510 0.000000 5
0.475694 0.064147 0.000000 5
0.485420 0.066840 0.000000 5
0.495134 0.069587 0.000000 5
0.504837 0.072388 0.000000 5
0.514527 0.075245 0.000000 5
0.524206 0.078156 0.000000 5
0.533872 0.081122 0.000000 5
0.543526 0.084142 0.000000 5
0.553166 0.087217 0.000000 5
0.562794 0.090347 0.000000 5
0.572409 0.093530 0.000000 5
0.582010 0.096769 0.000000 5
0.591598 0.100061 0.000000 5
0.601171 0.103408 0.000000 5
0.610731 0.106809 0.000000 5
0.620276 0.110265 0.000000 5
0.629806 0.113774 0.000000 5
0.639321 0.117337 0.000000 5
0.648822 0.120955 0.000000 5
0.658307 0.124626 0.000000 5
0.667777 0.128352 0.000000 5
0.677231 0.132131 0.000000 5
0.686669 0.135964 0.000000 5
0.696090 0.139851 0.000000 5
0.705496 0.143791 0.000000 5
0.714884 0.147785 0.000000 5
0.724256 0.151833 0.000000 5
0.733611 0.155934 0.000000 5
0.742948 0.160088 0.000000 5
0.752268 0.164296 0.000000 5
0.761570 0.168557 0.000000 5
0.770854 0.172871 0.000000 5
0.780119 0.177239 0.000000 5
0.789367 0.181659 0.000000 5
0.798595 0.186133 0.000000 5
0.807805 0.190659 0.000000 5
0.816996 0.195239 0.000000 5
0.826167 0.199871 0.000000 5
0.835318 0.204556 0.000000 5
0.844450 0.209293 0.000000 5
0.853562 0.214083 0.000000 5
0.862654 0.218926 0.000000 5
0.871725 0.223821 0.000000 5
0.880775 0.228768 0.000000 5
0.889805 0.233768 0.000000 5
0.898813 0.238820 0.000000 5
0.907800 0.243924 0.000000 5
0.916766 0.249080 0.000000 5
0.925709 0.254288 0.000000 5
0.934631 0.259547 0.000000 5
0.943530 0.264859 0.000000 5
0.952407 0.270222 0.000000 5
0.961262 0.275637 0.000000 5
0.000000 0.000000 0.000000 6
0.010000 0.000042 0.000000 6
0.019999 0.000168 0.000000 6
0.029998 0.000377 0.000000 6
0.039994 0.000670 0.000000 6
0.049989 0.001047 0.000000 6
0.059981 0.001508 0.000000 6
0.069970 0.002052 0.000000 6
0.079955 0.002680 0.000000 6
0.089936 0.003392 0.000000 6
0.099912 0.004188 0.000000 6
0.109883 0.005067 0.000000 6
0.119848 0.006029 0.000000 6
0.129807 0.007076 0.000000 6
0.139759 0.008205 0.000000 6
0.149704 0.009419 0.000000 6
0.159641 0.010715 0.000000 6
0.169569 0.012095 0.000000 6
0.179489 0.013559 0.000000 6
0.189399 0.015106 0.000000 6
0.199299 0.016736 0.000000 6
0.209188 0.018449 0.000000 6
0.219067 0.020245 0.000000 6
0.228933 0.022124 0.000000 6
0.238788 0.024087 0.000000 6
0.248630 0.026132 0.000000 6
0.258460 0.028260 0.000000 6
0.268275 0.030471 0.000000 6
0.278076 0.032765 0.000000 6
0.287863 0.035141 0.000000 6
0.297634 0.037600 0.000000 6
0.307390 0.040141 0.000000 6
0.317130 0.042765 0.000000 6
0.326852 0.045471 0.000000 6
0.336558 0.048259 0.000000 6
0.346245 0.051129 0.000000 6
0.355915 0.054081 0.000000 6
0.365565 0.057115 0.000000 6
0.375196 0.060231 0.000000 6
0.384808 0.063428 0.000000 6
0.394398 0.066707 0.000000 6
0.403968 0.070068 0.000000 6
0.413517 0.073510 0.000000 6
0.423044 0.077033 0.000000 6
0.432548 0.080637 0.000000 6
0.442029 0.084322 0.000000 6
0.451487 0.088087 0.000000 6
0.460921 0.091934 0.000000 6
0.470330 0.095861 0.000000 6
0.479715 0.099868 0.000000 6
0.489074 0.103956 0.000000 6
0.498407 0.108124 0.000000 6
0.507713 0.112371 0.000000 6
0.516993 0.116699 0.000000 6
0.526245 0.121106 0.000000 6
0.535468 0.125593 0.000000 6
0.544664 0.130159 0.000000 6
0.553830 0.134804 0.000000 6
0.562967 0.139529 0.000000 6
0.572074 0.144332 0.000000 6
0.581150 0.149214 0.000000 6
0.590195 0.154174 0.000000 6
0.599209 0.159213 0.000000 6
0.608190 0.164330 0.000000 6
0.617140 0.169525 0.000000 6
0.626056 0.174798 0.000000 6
0.634938 0.180148 0.000000 6
0.643787 0.185576 0.000000 6
0.652601 0.191081 0.000000 6
0.661380 0.196663 0.000000 6
0.670124 0.202322 0.000000 6
0.678831 0.208058 0.000000 6
0.687502 0.213870 0.000000 6
0.696137 0.219758 0.000000 6
0.704734 0.225723 0.000000 6
0.713292 0.231763 0.000000 6
0.721813 0.237879 0.000000 6
0.730294 0.244070 0.000000 6
0.738737 0.250336 0.000000 6
0.747139 0.256677 0.000000 6
0.755501 0.263093 0.000000 6
0.763822 0.269584 0.000000 6
0.772102 0.276149 0.000000 6
0.780340 0.282787 0.000000 6
0.788536 0.289500 0.000000 6
0.796690 0.296286 0.000000 6
0.804800 0.303146 0.000000 6
0.812866 0.310078 0.000000 6
0.820888 0.317084 0.000000 6
0.828866 0.324162 0.000000 6
0.836799 0.331312 0.000000 6
0.844686 0.338535 0.000000 6
0.852527 0.345829 0.000000 6
0.860322 0.353195 0.000000 6
0.868070 0.360632 0.000000 6
0.875770 0.368140 0.000000 6
0.883423 0.375719 0.000000 6
0.891027 0.383368 0.000000 6
0.898582 0.391088 0.000000 6
0.906089 0.398877 0.000000 6
0.913545 0.406737 0.000000 6
