ply
format ascii 1.0
element vertex 343
property float end_x
property float end_y
property float end_z
property int path_id
property int group_id
end_header
2.569139 -1.549040 0.000000 0 0
2.624493 -1.453284 0.000000 1 0
2.676280 -1.355553 0.000000 2 0
2.724430 -1.255979 0.000000 3 0
2.768875 -1.154698 0.000000 4 0
2.809558 -1.051848 0.000000 5 0
2.846421 -0.947568 0.000000 6 0
2.652827 -1.400896 0.000000 7 0
2.702663 -1.302157 0.000000 8 0
2.748826 -1.201647 0.000000 9 0
2.791253 -1.099504 0.000000 10 0
2.829885 -0.995866 0.000000 11 0
2.864671 -0.890875 0.000000 12 0
2.895564 -0.784673 0.000000 13 0
2.727981 -1.248247 0.000000 14 0
2.772139 -1.146841 0.000000 15 0
2.812530 -1.043876 0.000000 16 0
2.849097 -0.939491 0.000000 17 0
2.881792 -0.833830 0.000000 18 0
2.910570 -0.727036 0.000000 19 0
2.935392 -0.619253 0.000000 20 0
2.794360 -1.091583 0.000000 21 0
2.832698 -0.987836 0.000000 22 0
2.867187 -0.882747 0.000000 23 0
2.897777 -0.776457 0.000000 24 0
2.924430 -0.669112 0.000000 25 0
2.947107 -0.560858 0.000000 26 0
2.965778 -0.451841 0.000000 27 0
2.851750 -0.931407 0.000000 28 0
2.884146 -0.825654 0.000000 29 0
2.912621 -0.718778 0.000000 30 0
2.937136 -0.610925 0.000000 31 0
2.957660 -0.502242 0.000000 32 0
2.974163 -0.392876 0.000000 33 0
2.986624 -0.282977 0.000000 34 0
2.899968 -0.768235 0.000000 35 0
2.926316 -0.660816 0.000000 36 0
2.948686 -0.552497 0.000000 37 0
2.967048 -0.443428 0.000000 38 0
2.981377 -0.333756 0.000000 39 0
2.991653 -0.223631 0.000000 40 0
2.997863 -0.113201 0.000000 41 0
2.938857 -0.602593 0.000000 42 0
2.959073 -0.493852 0.000000 43 0
2.975266 -0.384440 0.000000 44 0
2.987415 -0.274505 0.000000 45 0
2.995503 -0.164197 0.000000 46 0
2.999520 -0.053666 0.000000 47 0
2.999460 0.056938 0.000000 48 0
2.694371 -1.319230 0.000000 49 1
2.741169 -1.219014 0.000000 50 1
2.784241 -1.117141 0.000000 51 1
2.823528 -1.013750 0.000000 52 1
2.858978 -0.908981 0.000000 53 1
2.890541 -0.802976 0.000000 54 1
2.918176 -0.695880 0.000000 55 1
2.764828 -1.164357 0.000000 56 1
2.805869 -1.061649 0.000000 57 1
2.843096 -0.957498 0.000000 58 1
2.876459 -0.852046 0.000000 59 1
2.905912 -0.745436 0.000000 60 1
2.931415 -0.637812 0.000000 61 1
2.952934 -0.529322 0.000000 62 1
2.826392 -1.005738 0.000000 63 1
2.861544 -0.900869 0.000000 64 1
2.892807 -0.794775 0.000000 65 1
2.920138 -0.687601 0.000000 66 1
2.943499 -0.579493 0.000000 67 1
2.962860 -0.470596 0.000000 68 1
2.978193 -0.361060 0.000000 69 1
2.878864 -0.843885 0.000000 70 1
2.908015 -0.737191 0.000000 71 1
2.933212 -0.629496 0.000000 72 1
2.954423 -0.520945 0.000000 73 1
2.971618 -0.411685 0.000000 74 1
2.984774 -0.301867 0.000000 75 1
2.993873 -0.191637 0.000000 76 1
2.922076 -0.679316 0.000000 77 1
2.945131 -0.571142 0.000000 78 1
2.964183 -0.462191 0.000000 79 1
2.979205 -0.352612 0.000000 80 1
2.990179 -0.242554 0.000000 81 1
2.997087 -0.132166 0.000000 82 1
2.999922 -0.021598 0.000000 83 1
2.955889 -0.512563 0.000000 84 1
2.972774 -0.403256 0.000000 85 1
2.985618 -0.293400 0.000000 86 1
2.994404 -0.183146 0.000000 87 1
2.999120 -0.072642 0.000000 88 1
2.999760 0.037960 0.000000 89 1
2.996322 0.148510 0.000000 90 1
2.980193 -0.344161 0.000000 91 1
2.990854 -0.234072 0.000000 92 1
2.997450 -0.123665 0.000000 93 1
2.999971 -0.013090 0.000000 94 1
2.998415 0.097503 0.000000 95 1
2.992783 0.207964 0.000000 96 1
2.983083 0.318141 0.000000 97 1
2.799096 -1.079380 0.000000 98 2
2.836982 -0.975467 0.000000 99 2
2.871011 -0.870228 0.000000 100 2
2.901138 -0.763806 0.000000 101 2
2.927321 -0.656346 0.000000 102 2
2.949526 -0.547994 0.000000 103 2
2.967721 -0.438897 0.000000 104 2
2.855787 -0.918955 0.000000 105 2
2.887721 -0.813061 0.000000 106 2
2.915729 -0.706062 0.000000 107 2
2.939774 -0.598104 0.000000 108 2
2.959823 -0.489332 0.000000 109 2
2.975849 -0.379895 0.000000 110 2
2.987831 -0.269942 0.000000 111 2
2.903292 -0.755575 0.000000 112 2
2.929171 -0.648041 0.000000 113 2
2.951068 -0.539626 0.000000 114 2
2.968954 -0.430478 0.000000 115 2
2.982805 -0.320745 0.000000 116 2
2.992601 -0.210575 0.000000 117 2
2.998329 -0.100120 0.000000 118 2
2.941459 -0.589764 0.000000 119 2
2.961199 -0.480936 0.000000 120 2
2.976915 -0.371454 0.000000 121 2
2.988584 -0.261467 0.000000 122 2
2.996191 -0.151125 0.000000 123 2
2.999726 -0.040578 0.000000 124 2
2.999183 0.070025 0.000000 125 2
2.970163 -0.422056 0.000000 126 2
2.983702 -0.312284 0.000000 127 2
2.993186 -0.202087 0.000000 128 2
2.998601 -0.091616 0.000000 129 2
2.999940 0.018980 0.000000 130 2
2.997201 0.129550 0.000000 131 2
2.990389 0.239944 0.000000 132 2
2.989314 -0.252990 0.000000 133 2
2.996608 -0.142627 0.000000 134 2
2.999829 -0.032070 0.000000 135 2
2.998972 0.078531 0.000000 136 2
2.994039 0.189025 0.000000 137 2
2.985036 0.299262 0.000000 138 2
2.971976 0.409092 0.000000 139 2
2.998849 -0.083111 0.000000 140 2
2.999874 0.027489 0.000000 141 2
2.996822 0.138050 0.000000 142 2
2.989697 0.248425 0.000000 143 2
2.978507 0.358461 0.000000 144 2
2.963270 0.468010 0.000000 145 2
2.944004 0.576924 0.000000 146 2
2.882519 -0.831315 0.000000 147 3
2.911204 -0.724496 0.000000 148 3
2.935931 -0.616691 0.000000 149 3
2.956668 -0.508049 0.000000 150 3
2.973386 -0.398715 0.000000 151 3
2.986063 -0.288840 0.000000 152 3
2.994681 -0.178572 0.000000 153 3
2.925012 -0.666560 0.000000 154 3
2.947595 -0.558286 0.000000 155 3
2.966171 -0.449253 0.000000 156 3
2.980716 -0.339610 0.000000 157 3
2.991208 -0.229505 0.000000 158 3
2.997635 -0.119087 0.000000 159 3
2.999988 -0.008508 0.000000 160 3
2.958097 -0.499661 0.000000 161 3
2.974505 -0.390281 0.000000 162 3
2.986870 -0.280370 0.000000 163 3
2.995175 -0.170078 0.000000 164 3
2.999409 -0.059555 0.000000 165 3
2.999566 0.051048 0.000000 166 3
2.995645 0.161583 0.000000 167 3
2.981667 -0.331155 0.000000 168 3
2.991847 -0.221020 0.000000 169 3
2.997961 -0.110585 0.000000 170 3
3.000000 0.000000 0.000000 171 3
2.997961 0.110585 0.000000 172 3
2.991847 0.221020 0.000000 173 3
2.981667 0.331155 0.000000 174 3
2.995645 -0.161583 0.000000 175 3
2.999566 -0.051048 0.000000 176 3
2.999409 0.059555 0.000000 177 3
2.995175 0.170078 0.000000 178 3
2.986870 0.280370 0.000000 179 3
2.974505 0.390281 0.000000 180 3
2.958097 0.499661 0.000000 181 3
2.999988 0.008508 0.000000 182 3
2.997635 0.119087 0.000000 183 3
2.991208 0.229505 0.000000 184 3
2.980716 0.339610 0.000000 185 3
2.966171 0.449253 0.000000 186 3
2.947595 0.558286 0.000000 187 3
2.925012 0.666560 0.000000 188 3
2.994681 0.178572 0.000000 189 3
2.986063 0.288840 0.000000 190 3
2.973386 0.398715 0.000000 191 3
2.956668 0.508049 0.000000 192 3
2.935931 0.616691 0.000000 193 3
2.911204 0.724496 0.000000 194 3
2.882519 0.831315 0.000000 195 3
2.944004 -0.576924 0.000000 196 4
2.963270 -0.468010 0.000000 197 4
2.978507 -0.358461 0.000000 198 4
2.989697 -0.248425 0.000000 199 4
2.996822 -0.138050 0.000000 200 4
2.999874 -0.027489 0.000000 201 4
2.998849 0.083111 0.000000 202 4
2.971976 -0.409092 0.000000 203 4
2.985036 -0.299262 0.000000 204 4
2.994039 -0.189025 0.000000 205 4
2.998972 -0.078531 0.000000 206 4
2.999829 0.032070 0.000000 207 4
2.996608 0.142627 0.000000 208 4
2.989314 0.252990 0.000000 209 4
2.990389 -0.239944 0.000000 210 4
2.997201 -0.129550 0.000000 211 4
2.999940 -0.018980 0.000000 212 4
2.998601 0.091616 0.000000 213 4
2.993186 0.202087 0.000000 214 4
2.983702 0.312284 0.000000 215 4
2.970163 0.422056 0.000000 216 4
2.999183 -0.070025 0.000000 217 4
2.999726 0.040578 0.000000 218 4
2.996191 0.151125 0.000000 219 4
2.988584 0.261467 0.000000 220 4
2.976915 0.371454 0.000000 221 4
2.961199 0.480936 0.000000 222 4
2.941459 0.589764 0.000000 223 4
2.998329 0.100120 0.000000 224 4
2.992601 0.210575 0.000000 225 4
2.982805 0.320745 0.000000 226 4
2.968954 0.430478 0.000000 227 4
2.951068 0.539626 0.000000 228 4
2.929171 0.648041 0.000000 229 4
2.903292 0.755575 0.000000 230 4
2.987831 0.269942 0.000000 231 4
2.975849 0.379895 0.000000 232 4
2.959823 0.489332 0.000000 233 4
2.939774 0.598104 0.000000 234 4
2.915729 0.706062 0.000000 235 4
2.887721 0.813061 0.000000 236 4
2.855787 0.918955 0.000000 237 4
2.967721 0.438897 0.000000 238 4
2.949526 0.547994 0.000000 239 4
2.927321 0.656346 0.000000 240 4
2.901138 0.763806 0.000000 241 4
2.871011 0.870228 0.000000 242 4
2.836982 0.975467 0.000000 243 4
2.799096 1.079380 0.000000 244 4
2.983083 -0.318141 0.000000 245 5
2.992783 -0.207964 0.000000 246 5
2.998415 -0.097503 0.000000 247 5
2.999971 0.013090 0.000000 248 5
2.997450 0.123665 0.000000 249 5
2.990854 0.234072 0.000000 250 5
2.980193 0.344161 0.000000 251 5
2.996322 -0.148510 0.000000 252 5
2.999760 -0.037960 0.000000 253 5
2.999120 0.072642 0.000000 254 5
2.994404 0.183146 0.000000 255 5
2.985618 0.293400 0.000000 256 5
2.972774 0.403256 0.000000 257 5
2.955889 0.512563 0.000000 258 5
2.999922 0.021598 0.000000 259 5
2.997087 0.132166 0.000000 260 5
2.990179 0.242554 0.000000 261 5
2.979205 0.352612 0.000000 262 5
2.964183 0.462191 0.000000 263 5
2.945131 0.571142 0.000000 264 5
2.922076 0.679316 0.000000 265 5
2.993873 0.191637 0.000000 266 5
2.984774 0.301867 0.000000 267 5
2.971618 0.411685 0.000000 268 5
2.954423 0.520945 0.000000 269 5
2.933212 0.629496 0.000000 270 5
2.908015 0.737191 0.000000 271 5
2.878864 0.843885 0.000000 272 5
2.978193 0.361060 0.000000 273 5
2.962860 0.470596 0.000000 274 5
2.943499 0.579493 0.000000 275 5
2.920138 0.687601 0.000000 276 5
2.892807 0.794775 0.000000 277 5
2.861544 0.900869 0.000000 278 5
2.826392 1.005738 0.000000 279 5
2.952934 0.529322 0.000000 280 5
2.931415 0.637812 0.000000 281 5
2.905912 0.745436 0.000000 282 5
2.876459 0.852046 0.000000 283 5
2.843096 0.957498 0.000000 284 5
2.805869 1.061649 0.000000 285 5
2.764828 1.164357 0.000000 286 5
2.918176 0.695880 0.000000 287 5
2.890541 0.802976 0.000000 288 5
2.858978 0.908981 0.000000 289 5
2.823528 1.013750 0.000000 290 5
2.784241 1.117141 0.000000 291 5
2.741169 1.219014 0.000000 292 5
2.694371 1.319230 0.000000 293 5
2.999460 -0.056938 0.000000 294 6
2.999520 0.053666 0.000000 295 6
2.995503 0.164197 0.000000 296 6
2.987415 0.274505 0.000000 297 6
2.975266 0.384440 0.000000 298 6
2.959073 0.493852 0.000000 299 6
2.938857 0.602593 0.000000 300 6
2.997863 0.113201 0.000000 301 6
2.991653 0.223631 0.000000 302 6
2.981377 0.333756 0.000000 303 6
2.967048 0.443428 0.000000 304 6
2.948686 0.552497 0.000000 305 6
2.926316 0.660816 0.000000 306 6
2.899968 0.768235 0.000000 307 6
2.986624 0.282977 0.000000 308 6
2.974163 0.392876 0.000000 309 6
2.957660 0.502242 0.000000 310 6
2.937136 0.610925 0.000000 311 6
2.912621 0.718778 0.000000 312 6
2.884146 0.825654 0.000000 313 6
2.851750 0.931407 0.000000 314 6
2.965778 0.451841 0.000000 315 6
2.947107 0.560858 0.000000 316 6
2.924430 0.669112 0.000000 317 6
2.897777 0.776457 0.000000 318 6
2.867187 0.882747 0.000000 319 6
2.832698 0.987836 0.000000 320 6
2.794360 1.091583 0.000000 321 6
2.935392 0.619253 0.000000 322 6
2.910570 0.727036 0.000000 323 6
2.881792 0.833830 0.000000 324 6
2.849097 0.939491 0.000000 325 6
2.812530 1.043876 0.000000 326 6
2.772139 1.146841 0.000000 327 6
2.727981 1.248247 0.000000 328 6
2.895564 0.784673 0.000000 329 6
2.864671 0.890875 0.000000 330 6
2.829885 0.995866 0.000000 331 6
2.791253 1.099504 0.000000 332 6
2.748826 1.201647 0.000000 333 6
2.702663 1.302157 0.000000 334 6
2.652827 1.400896 0.000000 335 6
2.846421 0.947568 0.000000 336 6
2.809558 1.051848 0.000000 337 6
2.768875 1.154698 0.000000 338 6
2.724430 1.255979 0.000000 339 6
2.676280 1.355553 0.000000 340 6
2.624493 1.453284 0.000000 341 6
2.569139 1.549040 0.000000 342 6
